<svg id="Layer_1" data-name="Layer 1" xmlns="http://www.w3.org/2000/svg" viewBox="0 0 922 126"><title>signature</title><path d="M56.19,34.05l.35-.11h1.59c.48,0,1.16-.55,2.07-1.66a31.47,31.47,0,0,1,3.15-1.12l.24-.23A13,13,0,0,1,64.78,30H65.9a4.26,4.26,0,0,0,.95-.56,13.68,13.68,0,0,1,3.52-1.27A17.18,17.18,0,0,0,73.89,27a20,20,0,0,1,2.59-.35l1.66-.3,1.3.12c2.08,0,3.58,1.38,4.48,4.13a1.69,1.69,0,0,0,.3.74,1.77,1.77,0,0,1,.29.74,8,8,0,0,1-2.42,5.19l-.82,2.19a3.93,3.93,0,0,1-.62.88,8.3,8.3,0,0,0-1.1,1.8A13.24,13.24,0,0,1,77,45.21c-.24.47-.57,1.21-1,2.21a7.28,7.28,0,0,1-1.09,2,37.2,37.2,0,0,0-2.3,3.54,14.59,14.59,0,0,0-1.86,3.6,3.49,3.49,0,0,0-1.21,2.19,8.51,8.51,0,0,1-1.21,2.89l-.12.41c1.26-.43,1.89-1.12,1.89-2.06,0-.12.33-.41,1-.89l.47-.82a2.68,2.68,0,0,1,1.24-.95,3.71,3.71,0,0,1,1.24-1.39c.75-.6,1.25-1,1.5-1.26a4.5,4.5,0,0,1,1.27-.74c.59-.26,1.26-1.23,2-2.92.08-.32.39-.57.92-.77a2.91,2.91,0,0,0,1.32-1,4.5,4.5,0,0,1,.89-.91l.47-.71a5.44,5.44,0,0,1,.89-.71l2.88-3.54c1.54-1,2.38-1.75,2.54-2.3l.47-.12h.36c.62-.51,1-.86,1.23-1.06a2.27,2.27,0,0,1,1.33-2.33,4.65,4.65,0,0,0,1.92-1.36,1.64,1.64,0,0,1,1.29-.8,1.46,1.46,0,0,1,.65.36h.12c.12,0,.24-.2.36-.59v-.6a2.39,2.39,0,0,1,.58-1.65,2.86,2.86,0,0,1,1.6-.85,3.45,3.45,0,0,0,1.94-1.51,2.88,2.88,0,0,1,2.15-1.36,1.72,1.72,0,0,0,1.63-.94,5.35,5.35,0,0,1,2.53-1.92,15.15,15.15,0,0,1,2.65-1.12,3.15,3.15,0,0,0,1-.33,2,2,0,0,1,.91-.23,6.39,6.39,0,0,1,1.71.35l1.06.24a6.37,6.37,0,0,1,2.54,2.18l.59.59v.24l.12,1v.47c.51.24.77.48.77.71l-.41.77a1.91,1.91,0,0,0-.24,1,10.69,10.69,0,0,1-.06,1.13c0,.37-.09.72-.15,1.06a8.08,8.08,0,0,1-.23.94,8,8,0,0,1-.33.83,5.35,5.35,0,0,1-.41.74l-.47,1.89a8.3,8.3,0,0,1-1.27,2.68,10.12,10.12,0,0,0-1.21,2.19,7.88,7.88,0,0,1-.83,1.68l.12.35v.83c1.22-.16,1.84-.63,1.84-1.42a2,2,0,0,1,1.48-1.83l1.3-1.06a7.42,7.42,0,0,1,3.79-3.54,2.76,2.76,0,0,1,1.13-1.95l2.25-2.13,1.6-.88A4.8,4.8,0,0,1,128.56,31l1.31-.82c.79-.4,1.23-.78,1.33-1.15a2.32,2.32,0,0,1,.92-1.16c.51-.39,1.26-1,2.25-1.94l.47-.24.59-.59a7.37,7.37,0,0,1,1.48-.59l.47-.24a9.29,9.29,0,0,1,2.66-1.5,13.58,13.58,0,0,0,2.65-1.27l2.07-.3a4.17,4.17,0,0,1,.94-.23q5.61,0,5.61,6.31l-.12.95.12,3.42a29.28,29.28,0,0,0-1.47,2.54l.11,1.06a4.7,4.7,0,0,1-.76,1.39l-.92,1.39a13.18,13.18,0,0,1-1.09,1.24l-.59,1.77a3.32,3.32,0,0,1-1,1.12v.71c0,.59-.77,1.47-2.31,2.65a4.25,4.25,0,0,1-1,2.28,5.76,5.76,0,0,0-1.12,1.53,4.77,4.77,0,0,1-1.21,1.51,6.82,6.82,0,0,1-1,2.6,9.93,9.93,0,0,1-1.57,2.33,5.52,5.52,0,0,0-1.15,1.74l-.53.23c-.24,1.5-.51,2.35-.83,2.54l-.94-.12v.24a.9.9,0,0,0,.23.41,1,1,0,0,1,.24.65.89.89,0,0,1-.35.71,1.12,1.12,0,0,0-.42.59,1.49,1.49,0,0,1-.27.59,2.64,2.64,0,0,0-.26,1.15,6.26,6.26,0,0,1-.89,2.34,7.11,7.11,0,0,0-.89,2,4.34,4.34,0,0,1-.18.89,2.16,2.16,0,0,0-.12.71,13.12,13.12,0,0,1-.29,1.83c.75,1.77,1.28,3,1.6,3.6a3.94,3.94,0,0,1,.47,1.24,5.78,5.78,0,0,1-.59,3.15c-.4.54-1.36.8-2.9.8a3.63,3.63,0,0,1-2.58-1,3,3,0,0,0-1.92-1V78l-.12-.12h-1c-.07-.07-.24-.21-.5-.41a3.55,3.55,0,0,1-.74-.82l-.35-.36a5.5,5.5,0,0,1-.83-2l-.35-1.18.12-.94-.12-1.48a3,3,0,0,1,.12-.94l.12-1.6a4.66,4.66,0,0,1,.23-1,8.13,8.13,0,0,0,.3-1.89,2.84,2.84,0,0,1,.53-1.68,2.32,2.32,0,0,0,.53-1,1.17,1.17,0,0,1,.32-.68,2.75,2.75,0,0,0,.45-1.33,2.43,2.43,0,0,1,1.24-1.71c.39-.71.72-1.38,1-2a19.32,19.32,0,0,1,1.3-1.71h.83a2.91,2.91,0,0,1-.59-.83c0-1.06.41-1.59,1.24-1.59a2,2,0,0,1,.59.12l.23-.48-.23-1q0-1,1.53-2a4,4,0,0,1,1.59-3.07l-.11-.94a8,8,0,0,0,1-1.57,16,16,0,0,1,1.65-2.45l1.83-2.77.83-.94s0,0,0,0a1.18,1.18,0,0,0,.12-.24c.06-.14.12-.35.2-.62l.36-.89.41-.47c1-.27,1.54-.63,1.54-1.06a2.88,2.88,0,0,0-.48-.77v-.23a1.93,1.93,0,0,1,.71-1.18,7.56,7.56,0,0,0,1.33-2,5.94,5.94,0,0,0,.62-1.57.21.21,0,0,0-.24-.23,2.55,2.55,0,0,0-2.54,1.35c0,.24-.76.71-2.3,1.42l-.59.89a2,2,0,0,1-1.24.65,2.47,2.47,0,0,0-1.38.68q-.87.67-3.75,3.06A40,40,0,0,0,126,40.37l-1.36.94c-.55.28-.83.5-.83.65,0,.4-.34.91-1,1.54l-.71.88a6.33,6.33,0,0,0-1-.29,1.37,1.37,0,0,0-1.12.65c.31.31.47.51.47.59q0,.95-1.77,2l-2.55,2.65a10,10,0,0,1-.89.65,3.4,3.4,0,0,0-1.15,1.33A16.5,16.5,0,0,1,112,54.69a16.06,16.06,0,0,1-2,2.12,2.14,2.14,0,0,0-.71.8,11,11,0,0,1-1.72,1.83A4.21,4.21,0,0,0,106.12,62c-.75.28-1.13.52-1.13.71l-.35.59-.47.24a2.49,2.49,0,0,0-.18.8c0,.37-.83,1-2.36,2a8.77,8.77,0,0,1-2.9,1.45,1.17,1.17,0,0,0-.53.24,1.23,1.23,0,0,1-.47.23,7.78,7.78,0,0,1-1.56-.71q-1.4-.7-2-3.3l.47-1.54-.23-1.24a1.6,1.6,0,0,1,.56-.94,2.08,2.08,0,0,0,.56-1.48c.63-1.41,1.1-2.42,1.41-3l.12-.94a5.83,5.83,0,0,1,.8-1.33,3.44,3.44,0,0,0,.68-1.65A1.25,1.25,0,0,1,99.27,51q.65-.24,4.78-7.15V43l1.71-3c.51-.87,1.14-1.85,1.89-3l.53-1.35a18.86,18.86,0,0,0-2-.71,1.52,1.52,0,0,0-.88.47c0,.67-1.17,1.36-3.49,2.07A6.49,6.49,0,0,0,100,39.31l-1.66.94a10.91,10.91,0,0,0-1.12,1l-.82.76a4.63,4.63,0,0,0-2.54,1.66l-1.59,1.12a7.55,7.55,0,0,0-1,.88,10.11,10.11,0,0,1-2.18,1.3l-.94.95-.89.47a14.69,14.69,0,0,0-1.42,1.71,1.77,1.77,0,0,1-1.23.83l-1.3.47a5.47,5.47,0,0,1-2.18,2.95L79.5,56.43a9.92,9.92,0,0,1-.82.65,1.4,1.4,0,0,1-.83.82c-.51.63-.84,1.07-1,1.3l-.71.53c-1.06.4-1.59.71-1.59,1l.12,1.06c0,.43-.48.85-1.42,1.24a1.19,1.19,0,0,0-.68.94,4.23,4.23,0,0,1-.44,1.36H71.07a4.3,4.3,0,0,0-1.12.59.35.35,0,0,0-.24.12L70,67.35A2.5,2.5,0,0,1,69,69a11.83,11.83,0,0,0-1.44,1.62c-.34.48-.58.71-.74.71h-.35l-.36.24A3.24,3.24,0,0,1,64.64,74l-.71.88a21.58,21.58,0,0,0-2,3,32.32,32.32,0,0,1-3.14,4.31,8.72,8.72,0,0,1-2.71,2.21c-.83.37-1.71.76-2.66,1.15L51,85a2.83,2.83,0,0,0-1-1.06c-.46-.28-.68-.57-.68-.89L48.57,81a4.53,4.53,0,0,1,.65-2,8.37,8.37,0,0,0,.8-1.89,8.79,8.79,0,0,1,.68-1.83A9.09,9.09,0,0,0,51.23,74c0-1.06.16-1.72.5-2L54,70.24q.12,0,.12-.24v-.11l-.12-1c.91-1.53,1.48-2.3,1.71-2.3a2,2,0,0,1,.48.12l-.36-1.3c0-.16.22-.41.65-.77a3.94,3.94,0,0,0,1-1.18l-.23-.71v-.23a3.19,3.19,0,0,1,1.47-2.31c.16-.31.48-1.12,1-2.42l1.54-2.71a3.73,3.73,0,0,1,1.25-1.51,1.26,1.26,0,0,0,.71-.91,3.18,3.18,0,0,1,.42-1.18c0,.2,0,.2.09,0s.15-.56.29-1.15a2.19,2.19,0,0,1,1.34-1.42c.91-2.32,1.62-3.48,2.14-3.48a1.53,1.53,0,0,1,.65.23h.24c.63,0,.94-.23.94-.71a.21.21,0,0,0-.23-.23,1.45,1.45,0,0,1-1,.59c-.28,0-.41-.08-.41-.24s0-.15.17-.23l1.31-2.66.11-1.12a8.4,8.4,0,0,1,1-1.06l1-1.36v-.59a8,8,0,0,1,.53-1.21,9.67,9.67,0,0,0,.77-2.16l1-1.47a4.09,4.09,0,0,0,.24-1.3c0-.59-.08-.89-.24-.89l-3.42.65a38.43,38.43,0,0,0-4,2.25l-1.36.29a12,12,0,0,0-1.58.8,6.62,6.62,0,0,1-2.55.88,3.16,3.16,0,0,0-1.93.86l-.23.12H57.37A9.94,9.94,0,0,0,56.48,38c-.16.25-.29.38-.41.38q-6,4-7.56,4.78a15.13,15.13,0,0,0-2.42,1.51,7.5,7.5,0,0,1-1.42,1v.71a3.38,3.38,0,0,1-1.44,2.27,4.13,4.13,0,0,1-2.51,1.27,2.64,2.64,0,0,1-1.09-.38,4.94,4.94,0,0,0-1.66-.5c-.61-.08-.91-.83-.91-2.25q0-3,5-5.49a8.13,8.13,0,0,0,1.41-.82,41.73,41.73,0,0,1,5.26-2.3l1.71-.83a5.38,5.38,0,0,1,2-1.09c.92-.34,1.65-.62,2.18-.86a9.32,9.32,0,0,1,1.27-.47Zm55.4,14.29.59-1.06v-.12q0-.12-.24-.12c-.39,0-.71.39-.94,1.18.07.24.15.36.23.36A.38.38,0,0,0,111.59,48.34Z"/><path d="M139.87,63.1l.94-.83h.36c.27,0,.69-.29,1.24-.88l.59-.24a5.06,5.06,0,0,1,2.07-2.07l.94-.7a2.09,2.09,0,0,1,.68-.42,5.49,5.49,0,0,0,1.42-1.15,2.64,2.64,0,0,1,1.57-1,3.36,3.36,0,0,1,.94.11A3.83,3.83,0,0,1,152,54.57a5.81,5.81,0,0,0,1.71-1.63l.77-.35a6.53,6.53,0,0,0,1.69-1.21,2.6,2.6,0,0,1,1.92-.74,5.39,5.39,0,0,1,3.57,1.74,4.82,4.82,0,0,1,1.86,3.34l-1,4.6q-1,5.09-2.25,5.32l-.23,1.24c-.55.39-.83.7-.83.94l.35,1.42c0,.19-.21.49-.64.88q-.12,0-.12.36V72.9c0,.43-.28.78-.83,1.06a1.51,1.51,0,0,0,.35.24,2.4,2.4,0,0,1,1.6-.36l.94.12,1.3-1.3a5.74,5.74,0,0,0,1.15-.56,18.19,18.19,0,0,1,2.5-1.15l7.73-5.9c1.06-1.07,1.86-1.6,2.41-1.6s.89.38.89,1.12a4.26,4.26,0,0,1-.5,2.16,11.4,11.4,0,0,0-.92,2.06,3.81,3.81,0,0,1-1,1.69,4.43,4.43,0,0,0-.92,1,7.46,7.46,0,0,1-1.91,1.62A18,18,0,0,0,169,75.29a12.6,12.6,0,0,1-1.8,1.56l-2.54,1.83-.35.59a5.29,5.29,0,0,1-1.09.5,7.26,7.26,0,0,0-1.75,1l-1.06.59a2.44,2.44,0,0,1-1.15.29,2.12,2.12,0,0,0-1.39.68c-.39.42-.7.62-.94.62l-.89-.12-1.18.36A4.25,4.25,0,0,1,152.41,82,3.4,3.4,0,0,1,151,79.39V79l.12-.83a5.3,5.3,0,0,0-.36-1.21,8.2,8.2,0,0,1-.35-1.09l.12-.83-.12-.35a5.3,5.3,0,0,1,.23-2,3.46,3.46,0,0,0,.36-1.15c.08-.49.16-.9.23-1.21l.3-1.48a1.77,1.77,0,0,1,.59-.94c.08-.32.24-.85.47-1.6l.24-1.06.59-.82a2.1,2.1,0,0,0,.56-1.27,4.27,4.27,0,0,1,.62-1.69,4,4,0,0,0,.53-1.06.63.63,0,0,0-.71-.71,5.14,5.14,0,0,0-1.47,1l-1.07-.36c-.08,0-.29.2-.65.59,0,.16-.17.28-.53.36a1.73,1.73,0,0,0-1,.88l-.47.12-.77-.35h-.24c-.39,0-.63.43-.71,1.3a3,3,0,0,1-1.71,1.24l-1.3.35a1.6,1.6,0,0,0-.94,1.06,3.38,3.38,0,0,1-1.18,1.51,3,3,0,0,1-1.18.68c-1.11,0-1.66-.61-1.66-1.83l.47-2.78Zm25.5-29.52-.36-2.3v-.35c0-1.85.63-2.88,1.89-3.07a23.54,23.54,0,0,0,2.48-.77A4.21,4.21,0,0,1,171.6,29a5.21,5.21,0,0,1,1.15,2.86,1.83,1.83,0,0,1-.18.53,5.25,5.25,0,0,0-.24,1.57,2.68,2.68,0,0,1-1.15,2,3.71,3.71,0,0,1-2.33.86,3.56,3.56,0,0,1-2.1-1.15A3.81,3.81,0,0,1,165.37,33.58Z"/><path d="M223.61,72h.24l.59.24a.31.31,0,0,0,.23-.12,2.09,2.09,0,0,1,1-1.71A2.69,2.69,0,0,1,227,68.65c.69-.4,1.79-1.05,3.29-2l1.48-1.3.71-.35.47-.59a1.73,1.73,0,0,1,1.24-.77c.59,0,.89.21.89.65l-.53,1.18.23,2a2.75,2.75,0,0,1-.73,1.88c-.5.56-1.26,1.36-2.28,2.42l-3,3.19-1.59.83a5.12,5.12,0,0,0-1.06.83l-2.31,1.94a1.47,1.47,0,0,1-.53,1.24h-1l-.47.24a4.74,4.74,0,0,1-2.42,2.18l-.83.59a1.22,1.22,0,0,1-.77.36l-1.66-.24-1.12.24a2.81,2.81,0,0,1-1.27-.47A7.33,7.33,0,0,0,212.1,82q-.84-.27-2.1-2.19a10,10,0,0,1-1.39-2.51,2.23,2.23,0,0,0-.27-.79,2.55,2.55,0,0,1-.26-.68,6.56,6.56,0,0,1,.53-1.18v-.12a2.79,2.79,0,0,0-.33-.83,3.6,3.6,0,0,1-.32-1.59,3.62,3.62,0,0,0-.36-1.36c.32-.31.48-.55.48-.71a2,2,0,0,0-.18-.67,2.07,2.07,0,0,1-.18-.68l.36-2.9-.24-1.47.12-1.42c0-.83-.36-1.24-1.06-1.24a2,2,0,0,0-1.18.65l-.41.12a13,13,0,0,0-2.23,1.27,2.24,2.24,0,0,1-1.36.5,3.22,3.22,0,0,1-1.35.65l-.47.35a6.58,6.58,0,0,1-.94.71,13.18,13.18,0,0,1-2.21,2q-2.2,1.8-4,3.39A6.77,6.77,0,0,1,190.22,73c-.53.1-.79.61-.79,1.51,0,.16-.35.47-1.06,1a7.53,7.53,0,0,0-1.24,1.29,5.07,5.07,0,0,0-1-.7c-.52,0-.89.64-1.13,1.94-.24.51-.87.83-1.89,1a2.43,2.43,0,0,0-.42.88l-.23.24h-.6a3.45,3.45,0,0,0-.82.68,3.53,3.53,0,0,1-1.25.85c-.51,1.07-.94,1.6-1.3,1.6a1.62,1.62,0,0,1-.68-.24,5.42,5.42,0,0,0-1.09-.41c-.44-.12-.92-.6-1.45-1.45a4.28,4.28,0,0,1-.8-2.15q0-6.56,2.54-7.15l.12-.23v-.47a1.14,1.14,0,0,1,.68-1.1,4,4,0,0,0,1.39-1.29,4.65,4.65,0,0,1,.94-1.1h.77c.16,0,.23-.41.23-1.24a.91.91,0,0,1,.3-.65,1.33,1.33,0,0,0,.35-.85A5.42,5.42,0,0,1,182.6,63a5.79,5.79,0,0,0,.8-1.51l-.12-.23a5.8,5.8,0,0,1-2.13,1.47c-.43.08-1,.65-1.77,1.72l-.94-.18a21.59,21.59,0,0,1-3.08,2.06,3.32,3.32,0,0,0-1.3,1.36.47.47,0,0,1-.41.47,6.64,6.64,0,0,0-1.54,1h-.36c-1,0-1.48-.71-1.48-2.13l1.24-3.36A5,5,0,0,1,174,60.94a31.71,31.71,0,0,0,3.33-2.09,4.92,4.92,0,0,1,2.71-1.07l.42-.59a4.49,4.49,0,0,0,2.71-2.42q.7-1.65,1.95-1.65a5.72,5.72,0,0,1,5,2.39,7.43,7.43,0,0,1,1.71,3.81l.12,1.59a10.54,10.54,0,0,1-.36,2.31,3.37,3.37,0,0,0-.7,1.59c0,.31.19.47.59.47a1.72,1.72,0,0,0,.94-.5,8.42,8.42,0,0,1,1.33-.92,2,2,0,0,0,.85-.7,3.34,3.34,0,0,1,2.07-1.95,5.77,5.77,0,0,0,1.82-.89l.59-.47.48-.88a6.92,6.92,0,0,0,2.12-1.3,2.45,2.45,0,0,1,1.41-.77,5,5,0,0,0,2-1.06l.88-.24.83-.47a2.07,2.07,0,0,1,.71-.3c.39-.12,1-.32,1.74-.62a5.64,5.64,0,0,1,1.56-.44,5.55,5.55,0,0,1,4.75,2.42,7.45,7.45,0,0,1,1.74,3.9l-.12,1.06.24,1.59V63l-.48,3.25.12,1.12c0,1.85-.39,3.13-1.18,3.83-.2.08-.29.28-.29.59v.54l1.18,2.48c.35.86.63,1.29.82,1.29l1.9-.53a2.29,2.29,0,0,0,1.36-1.24,8.4,8.4,0,0,0,1.66-1.41C222.72,72.27,223.1,72,223.61,72Z"/><path d="M237.6,59.5l1.24-1A1.49,1.49,0,0,0,240.37,57a3.17,3.17,0,0,1,1.95-2.36l.7-1c.59-.59,2.21-1.36,4.84-2.3a4.82,4.82,0,0,0,1.36-1.06.35.35,0,0,1,.23-.12l1,.24a6.28,6.28,0,0,0,2-.42,7.4,7.4,0,0,1,2.34-.41l2.47-.12a3.11,3.11,0,0,1,1,.36,4.22,4.22,0,0,0,1.8.35,3.19,3.19,0,0,1,2.38,1.18,3.4,3.4,0,0,1,1.1,2.18,5.4,5.4,0,0,1-1.89,3.72,7.34,7.34,0,0,1-3,2.13A7.07,7.07,0,0,1,257,60.65a4.37,4.37,0,0,0-1.09.82A1.47,1.47,0,0,1,255,62a.4.4,0,0,1-.35-.14.43.43,0,0,0-.36-.15c-.63,0-1.31.77-2.06,2.3l-1.06-.12a3.18,3.18,0,0,0-1.3,1.42,1.18,1.18,0,0,1-1.23.77c-1.46,1.45-2.44,2.18-3,2.18a5.36,5.36,0,0,1-.82-.23,1.92,1.92,0,0,0-.48,1.24c0,.47-.31.74-.94.82l-.76.71-.59-.12L240.93,72a3.49,3.49,0,0,0-1.83.59c-.08.47-.2,1.08-.35,1.8s-.24,1.13-.24,1.21c0,1.14,1,1.71,3.13,1.71l2.83-.41a3.93,3.93,0,0,0,2.1-.59,4,4,0,0,1,2.1-.59,4,4,0,0,0,1.06-.23l.59.23a3.9,3.9,0,0,1,1.53-1.59,3.64,3.64,0,0,1,1.78-.71l.59-.36a1.51,1.51,0,0,1,.7-.94l.48-.41a1.31,1.31,0,0,1,.88-.48h.83l.23-.11a2.86,2.86,0,0,1,2-1.8,2.29,2.29,0,0,0,1.6-.86,1.45,1.45,0,0,1,1.15-.71,2.15,2.15,0,0,0,1.39-.8,7,7,0,0,1,1.38-1.26,13.55,13.55,0,0,0,1.15-.89.91.91,0,0,1,.57-.29c.23,0,.35.17.35.53s.08.53.24.53a.21.21,0,0,0,.23-.24,1.92,1.92,0,0,0-.12-.59v-.41a1.17,1.17,0,0,1,.95-1.18l2.65-1.71c.08-.83.31-1.31.68-1.45a2.83,2.83,0,0,0,.86-.47.94.94,0,0,1,.65-.27c.51,0,.77.3.77.89l-.3,1.53.3,1.6a1.77,1.77,0,0,1-.56,1,4.16,4.16,0,0,0-.86,1.89c-.2.85-.45,1.31-.77,1.39h-.35a4.91,4.91,0,0,1-1.69,1.32,1.85,1.85,0,0,0-1,.74l-2,2.3c-.39.4-.73.75-1,1.07s-.49.47-.64.47l-.48-.47c0-.08-.08-.12-.23-.12-.4,0-.64.23-.74.71a2.75,2.75,0,0,1-.62,1.24,6.45,6.45,0,0,0-2.31,1.53l-.35.12h-1.06c-.52,0-.87.38-1.07,1.15a1.78,1.78,0,0,1-1.68,1.33,3.61,3.61,0,0,0-2,.71,1.41,1.41,0,0,1-.53.23,8.38,8.38,0,0,0-1.66,1l-5,1.77a2.26,2.26,0,0,1-.77.29l-1.65.24a1,1,0,0,1-.71-.47c-.24-.32-.39-.47-.47-.47l-1.07.35a7.6,7.6,0,0,1-2.24.35,2.55,2.55,0,0,1-1.3-.41c-.47-.27-.85-.47-1.12-.59-1.15,0-2-.89-2.43-2.66l-.7.12c-.16,0-.69-1.39-1.6-4.19a2,2,0,0,0-1.12-.68,1,1,0,0,1-.77-1.15c0-1.77.39-3,1.15-3.57s1.19-1.07,1.27-1.39l.83-3.07a3.22,3.22,0,0,0,.59-1.18l1.35-2.48C236.69,61.29,237.05,60.6,237.6,59.5ZM250.08,56l-.71.36a14,14,0,0,0-1.39,1,13.71,13.71,0,0,1-2.24,1.48,6.35,6.35,0,0,0-2.24,2.92,13,13,0,0,0-1.15,2.72.31.31,0,0,0,.35.35l2-.89a9.33,9.33,0,0,0,2.09-1.35,28.69,28.69,0,0,1,2.81-2l.47-.47a3.7,3.7,0,0,1,1.09-.86A6,6,0,0,0,252.62,58l.59-.24a4.32,4.32,0,0,1,2-1.94c.68-.24,1-.48,1-.71,0-.47-.38-.71-1.12-.71a3.17,3.17,0,0,0-1.42.59h-1.36a4.44,4.44,0,0,0-1.3.71Z"/><path d="M275,54.89l.89-.23.35-.77a15.42,15.42,0,0,0,4.14-3.25,1.26,1.26,0,0,1,.53-.47,3.3,3.3,0,0,0,.88-.83,7.13,7.13,0,0,1,5.2-2.18q3.54,0,3.78,4.31l.35.88a22.7,22.7,0,0,1,1.33,3.37,14.87,14.87,0,0,1,.85,3.13,5.9,5.9,0,0,1-1,3.18q-.82.42-3.95,4.43l-.59.42A12.67,12.67,0,0,1,286.52,69c-.79.28-1.18.57-1.18.89V71a1.17,1.17,0,0,1-.27.47,9.25,9.25,0,0,0-.74,1.36l-.47.71a2.39,2.39,0,0,0-.47,1,4.64,4.64,0,0,1-.68,1.33,1.73,1.73,0,0,0-.44.94c0,.59.76.89,2.3.89a4.34,4.34,0,0,0,.88-.36l.83.24a1.8,1.8,0,0,0,.59-.38,3.66,3.66,0,0,1,1.45-.62,5.75,5.75,0,0,0,1.71-.71A8.1,8.1,0,0,1,291.8,75a6.08,6.08,0,0,0,2-1.15,6.49,6.49,0,0,1,1.86-1.15,5.44,5.44,0,0,0,1.71-1.09,13,13,0,0,1,1.8-1.39,24.18,24.18,0,0,0,3.19-2.83,6.66,6.66,0,0,1,1.94-1.24,6.75,6.75,0,0,0,1-1.57c.61-1,1.3-1.56,2.09-1.56s1.24.39,1.24,1.18a1.76,1.76,0,0,1-.59,1.24v.35l.12,1a.94.94,0,0,1,.12.53c0,.16-.15.39-.45.71a2.68,2.68,0,0,0-.62,1.21,1.33,1.33,0,0,1-1.12,1c-.23.87-.54,1.36-.91,1.48a4.68,4.68,0,0,0-1.57,1.18,26.61,26.61,0,0,1-2.83,2.36,19.15,19.15,0,0,0-2.51,2.1c-.45.49-.76.73-.91.73a1.09,1.09,0,0,1-.47-.23,1.24,1.24,0,0,0-.48-.24c-.23,0-.39.28-.47.83l-.23.59a4.16,4.16,0,0,1-.89.47l-.35-.12h-.24c-.47,0-.71.18-.71.53l.36.59v.12c0,.55-.32.83-.95.83-.43,0-1.69.73-3.78,2.18l-1.71.36-1.41.76a3,3,0,0,0-.89-.41l-.94.3-1.72.11s-.75-.39-2.15-1.18a5.1,5.1,0,0,1-2.51-2.36,16.51,16.51,0,0,0-1.06-2.39,4.62,4.62,0,0,1-.65-1.68,12.43,12.43,0,0,1,.47-4,11.2,11.2,0,0,0,.59-1.8,3,3,0,0,1,.68-1.26,5.49,5.49,0,0,0,.92-2.22,27.27,27.27,0,0,1,2.36-4.19,5.32,5.32,0,0,0,1-1.89l.77-1.06a2.92,2.92,0,0,0,.35-.92c.16-.53.36-.83.59-.91a3.23,3.23,0,0,0,.48-1.06c0-1.14-.52-1.72-1.54-1.72-.2,0-.41.21-.65.62a3.47,3.47,0,0,1-1.62,1.21,6.88,6.88,0,0,0-1.57.89,4.73,4.73,0,0,1-1.27.74A4.33,4.33,0,0,0,276,60.79l-1,.48c-.32.75-.59,1.16-.83,1.24s-1,.27-2.18.59a3.33,3.33,0,0,0-.6.71,1.56,1.56,0,0,1-1.35.65,14.11,14.11,0,0,0-1.42,1.65,4.81,4.81,0,0,0-1.24.47l-1.18.3a5,5,0,0,0-1,1.12,2.47,2.47,0,0,1-2.1.76c-.59,0-.89-.47-.89-1.41a5.71,5.71,0,0,1,2-4.61,7.43,7.43,0,0,1,3-1.83,1.3,1.3,0,0,0,1.18-.71,2,2,0,0,1,1.15-1,6.71,6.71,0,0,0,2.13-1.71,6.1,6.1,0,0,1,2.63-1.8Z"/><path d="M307.53,58.14l.24-.47a2.42,2.42,0,0,0,2.54-1.6l.23-.23a7.91,7.91,0,0,0,3-1.63,8.41,8.41,0,0,1,3.31-1.68c1.59-.51,2.43-.77,2.51-.77a8.21,8.21,0,0,1,2.15,1.07c1.2.7,1.8,2,1.8,4a7.09,7.09,0,0,1-1.18,3.95v1.84l-.12.47a2,2,0,0,0-1,1.59v.47l.12,1.72-1.65,3.6c-.67.31-1,.59-1,.82s.17.35.5.56a1,1,0,0,1,.51.92,14.84,14.84,0,0,1-.36,2.42.35.35,0,0,0,.24.12h.23a1.54,1.54,0,0,1,.95-.71l.59-.41a1.75,1.75,0,0,1,.41-1h.71c.31,0,.47-.31.47-.94,0-.24.87-1.25,2.6-3s2.78-3,3.16-3.46a6.13,6.13,0,0,1,1.21-1.27,1.92,1.92,0,0,0,.77-1,1.82,1.82,0,0,1,.67-1,5.21,5.21,0,0,0,.92-1,3.43,3.43,0,0,1,1-.91,5,5,0,0,0,1.33-1.42,16.61,16.61,0,0,1,2.86-2.83,4.61,4.61,0,0,0,.83-1.06,5.15,5.15,0,0,1,1.74-1.57,13.62,13.62,0,0,0,2.42-2,5.49,5.49,0,0,1,3.93-1.15,5.26,5.26,0,0,1,4.6,4.61,2.36,2.36,0,0,1-.29,1.27c-.2.29-.53.79-1,1.5s-.87,1.06-1.27,1.06l-1.06-.35a3.26,3.26,0,0,1-2.3,1.12l-1.12-.24a4,4,0,0,1-1.71.77,1.49,1.49,0,0,0-1.1.71,1.55,1.55,0,0,1-1,.74,2.84,2.84,0,0,0-1.18.56l-.94.47a4,4,0,0,1-2.54,2.19A9.11,9.11,0,0,0,334,66.7c0,.12-.19.27-.56.47a3.8,3.8,0,0,0-1.15,1.06c-.4.52-.71.77-.95.77h-.53a3.68,3.68,0,0,0-.71,1.65c-.15.75-.8,1.26-1.94,1.54a2.59,2.59,0,0,0-.71.85,3.17,3.17,0,0,1-1.36,1.16,3.75,3.75,0,0,1-1.53,2.18l-.71,1.24a3.21,3.21,0,0,1-1.15,1.15,4.53,4.53,0,0,0-.92.68L321.06,81a3.82,3.82,0,0,1-1.57,1.86,5.67,5.67,0,0,0-1.68,1.33c-.55.61-1,.92-1.42.92-1.37,0-2.85-1.13-4.42-3.37s-2.36-3.66-2.36-4.25a11.9,11.9,0,0,1,.91-5.16,10.37,10.37,0,0,0,1.09-3.55,12,12,0,0,1,.65-2.92l.36-1.83.47-.82a4.23,4.23,0,0,0,.71-1.6l.29-.94c0-.71-.21-1.07-.65-1.07s-1,.36-1.41,1.07l-.24.23-1.54-.35c-.27,0-.53.61-.76,1.83a1.46,1.46,0,0,1-1.19.77c-.63.11-1.31.74-2.06,1.89l-.3.23a2.44,2.44,0,0,0-.71.24c-.55.9-.94,1.36-1.18,1.36s-.48-.23-.74-.68a2.71,2.71,0,0,0-1-1,1,1,0,0,1-.59-.88q0-1.37,2.65-3.49a1.86,1.86,0,0,0,.71-.88c.08-.28.61-.45,1.6-.53A3.86,3.86,0,0,0,307.53,58.14Z"/><path d="M386.37,68.29l.94-.82a1,1,0,0,0,1.06-.8,1.92,1.92,0,0,1,1.27-1.27,4.92,4.92,0,0,0,2-1.92c.63-1,1.27-1.45,1.94-1.45.23,0,.51.2.82.6a1.66,1.66,0,0,1,.47.94,8,8,0,0,1-1.18,4l-.23,1.66-.41.76a2.64,2.64,0,0,0-1.16,1,4.13,4.13,0,0,1-1.38,1.3l-.59.82a2.67,2.67,0,0,0-1.74,1.36A1.66,1.66,0,0,1,387,75.55a3.24,3.24,0,0,0-1.74,1.18,7.7,7.7,0,0,1-1.42.53l-.12.59a4.14,4.14,0,0,1-1.86,1,10.68,10.68,0,0,0-1.89.68,2.2,2.2,0,0,1-.85.32,4.75,4.75,0,0,1-2.07-.44,6.42,6.42,0,0,0-1.94-.56,1.35,1.35,0,0,1-.42-.77,2.56,2.56,0,0,0-.59-1.09,3,3,0,0,1-.53-1.86l.24-1.12a1,1,0,0,0-.3-.59,1.06,1.06,0,0,1-.29-.59.49.49,0,0,1,.12-.36.45.45,0,0,0,.11-.35,2,2,0,0,0-.11-.65,1.92,1.92,0,0,1-.12-.59l.35-2.89c0-.24-.08-.36-.23-.36s-.45.2-.86.59a2,2,0,0,1-1.45.59,2.7,2.7,0,0,0-.76,1.48,5.28,5.28,0,0,1-1.18,1.06l-.24.36c-.08.27-.38.5-.89.68a2.11,2.11,0,0,0-1.06.67l-.59.59-1.12-.11a7.88,7.88,0,0,0-.65,1A4.94,4.94,0,0,1,363.15,76l-4.49,3.66c-.47.31-1.16.7-2.06,1.18l-.36.35q-4.73,3.14-6.67,3.13a10,10,0,0,1-3.72-.89c-1.41-.59-2.18-1.3-2.3-2.12L343,78.92a4.28,4.28,0,0,1-.53-2.3,2.43,2.43,0,0,1,.12-1v-.35l-.12-1.95c0-.47.37-.71,1.12-.71l-.12-1.59a8.33,8.33,0,0,1,1-1.86,8.6,8.6,0,0,1,1.38-1.86l.59-.77a2,2,0,0,1,.83-1.51,8.33,8.33,0,0,0,1.42-1.62,7.1,7.1,0,0,1,2-1.83l1.77-1.77A18,18,0,0,1,357,56.54a5.65,5.65,0,0,0,1.45-1.18,7,7,0,0,1,2.48-1.56,16.34,16.34,0,0,0,2.72-1.27,4.71,4.71,0,0,1,2.1-.77h.47a24.39,24.39,0,0,0,3.14-1.47h.35a3.73,3.73,0,0,1,1.12.47h.12l.95-.47a1.26,1.26,0,0,1,.59-.12q3.66,0,4,5.08c.08.7.27,1.06.59,1.06s.95-.72,1.68-2.16S381,52,383.38,52c1.69,0,2.54,1.08,2.54,3.25a10.2,10.2,0,0,1-3.43,7.26,4.55,4.55,0,0,0-.35,1.06L381.31,66v.12a1.77,1.77,0,0,1-.5,1,1.89,1.89,0,0,0-.5,1.09l.12,1.48-.24,1.65a2,2,0,0,0,.41,1.48,4.85,4.85,0,0,0,2.74-1.57A4.1,4.1,0,0,1,384.55,70l.59-.23A5.81,5.81,0,0,1,386.37,68.29Zm-19.6,0a2.78,2.78,0,0,1,1.45-2,2.91,2.91,0,0,0,1.44-1.38,31.55,31.55,0,0,0,3.22-3c1.4-1.42,2.1-2.29,2.1-2.6q0-.18-.24-.18h-.12l-.47.3-1.06-.12L372,59.5l-.82-.42-.77.12L369.19,59a3.18,3.18,0,0,0-1.62.38,11.5,11.5,0,0,1-2.6.85,9.59,9.59,0,0,0-3.46,1.63A4.66,4.66,0,0,1,359.27,63a8.84,8.84,0,0,1-2.77,2.54,2.7,2.7,0,0,0-1.83,2.06c-1,.83-1.54,1.3-1.54,1.42l-.41,1a3.66,3.66,0,0,1-1.18.68,1.35,1.35,0,0,0-.83,1.24,3.25,3.25,0,0,1-.8,1.77,2.32,2.32,0,0,0-.68,1.27c0,1.93.38,2.89,1.13,2.89a7,7,0,0,0,2-.61,8,8,0,0,0,1.75-.86,2.35,2.35,0,0,1,.94-.47l1.12-.59a1.06,1.06,0,0,1,.53-.3,1.13,1.13,0,0,0,.59-.38,3.75,3.75,0,0,1,1.07-.71,3,3,0,0,0,1.18-1q1-.6,3.24-1.83l1.24-.95a4.44,4.44,0,0,0,1.6-1A3,3,0,0,1,366.77,68.29Z"/><path d="M436.27,34.05l.35-.11h1.59c.48,0,1.17-.55,2.07-1.66a31.47,31.47,0,0,1,3.15-1.12l.24-.23a13,13,0,0,1,1.19-.95H446a4.26,4.26,0,0,0,.95-.56,13.68,13.68,0,0,1,3.52-1.27A17,17,0,0,0,454,27a19.94,19.94,0,0,1,2.6-.35l1.65-.3,1.3.12c2.08,0,3.58,1.38,4.48,4.13a1.69,1.69,0,0,0,.3.74,1.64,1.64,0,0,1,.29.74,8,8,0,0,1-2.42,5.19l-.82,2.19a3.93,3.93,0,0,1-.62.88,7.91,7.91,0,0,0-1.09,1.8,13.64,13.64,0,0,1-2.54,3.1c-.24.47-.57,1.21-1,2.21a7.28,7.28,0,0,1-1.09,2,37.2,37.2,0,0,0-2.3,3.54,14.59,14.59,0,0,0-1.86,3.6,3.53,3.53,0,0,0-1.21,2.19,8.51,8.51,0,0,1-1.21,2.89l-.12.41c1.26-.43,1.89-1.12,1.89-2.06,0-.12.33-.41,1-.89l.47-.82a2.68,2.68,0,0,1,1.24-.95,3.71,3.71,0,0,1,1.24-1.39c.75-.6,1.25-1,1.5-1.26a4.5,4.5,0,0,1,1.27-.74c.59-.26,1.26-1.23,2-2.92.07-.32.38-.57.91-.77a3,3,0,0,0,1.33-1,4.26,4.26,0,0,1,.88-.91l.47-.71a5.44,5.44,0,0,1,.89-.71l2.89-3.54c1.53-1,2.37-1.75,2.53-2.3l.47-.12h.36c.63-.51,1-.86,1.24-1.06a2.26,2.26,0,0,1,1.32-2.33,4.58,4.58,0,0,0,1.92-1.36,1.64,1.64,0,0,1,1.3-.8,1.5,1.5,0,0,1,.64.36h.12c.12,0,.24-.2.36-.59v-.6a2.35,2.35,0,0,1,.59-1.65,2.8,2.8,0,0,1,1.59-.85,3.42,3.42,0,0,0,1.94-1.51,2.88,2.88,0,0,1,2.16-1.36,1.72,1.72,0,0,0,1.62-.94A5.35,5.35,0,0,1,487,26.35a14.79,14.79,0,0,1,2.66-1.12,3.18,3.18,0,0,0,1-.33,2,2,0,0,1,.91-.23,6.32,6.32,0,0,1,1.71.35l1.07.24a6.42,6.42,0,0,1,2.53,2.18l.59.59v.24l.12,1v.47c.51.24.77.48.77.71l-.41.77a1.91,1.91,0,0,0-.24,1,10.69,10.69,0,0,1-.06,1.13c0,.37-.09.72-.15,1.06a5.38,5.38,0,0,1-.23.94,8,8,0,0,1-.33.83,4.48,4.48,0,0,1-.41.74L496,38.78a8.3,8.3,0,0,1-1.27,2.68,10.12,10.12,0,0,0-1.21,2.19,7.88,7.88,0,0,1-.83,1.68l.12.35v.83c1.23-.16,1.84-.63,1.84-1.42a2,2,0,0,1,1.48-1.83l1.3-1.06a7.4,7.4,0,0,1,3.8-3.54,2.75,2.75,0,0,1,1.12-1.95l2.25-2.13,1.6-.88A4.83,4.83,0,0,1,508.64,31l1.31-.82c.79-.4,1.23-.78,1.33-1.15a2.38,2.38,0,0,1,.92-1.16c.51-.39,1.26-1,2.25-1.94l.47-.24.59-.59a7.37,7.37,0,0,1,1.48-.59l.47-.24a9.43,9.43,0,0,1,2.66-1.5,13.63,13.63,0,0,0,2.66-1.27l2.06-.3a4.1,4.1,0,0,1,.95-.23q5.6,0,5.6,6.31l-.11.95.11,3.42a29.28,29.28,0,0,0-1.47,2.54l.12,1.06a4.87,4.87,0,0,1-.77,1.39l-.92,1.39a13.18,13.18,0,0,1-1.09,1.24l-.59,1.77a3.32,3.32,0,0,1-1,1.12v.71c0,.59-.77,1.47-2.3,2.65a4.33,4.33,0,0,1-1,2.28,5.76,5.76,0,0,0-1.12,1.53A4.63,4.63,0,0,1,520,50.88a6.65,6.65,0,0,1-1,2.6,9.93,9.93,0,0,1-1.57,2.33,5.52,5.52,0,0,0-1.15,1.74l-.53.23c-.24,1.5-.51,2.35-.83,2.54L514,60.2v.24a.9.9,0,0,0,.23.41,1,1,0,0,1,.24.65.89.89,0,0,1-.35.71,1.12,1.12,0,0,0-.42.59,1.49,1.49,0,0,1-.27.59,2.64,2.64,0,0,0-.26,1.15,6.26,6.26,0,0,1-.89,2.34,7.11,7.11,0,0,0-.89,2,4.34,4.34,0,0,1-.18.89,2.45,2.45,0,0,0-.11.71,13.88,13.88,0,0,1-.3,1.83c.75,1.77,1.28,3,1.6,3.6a3.69,3.69,0,0,1,.47,1.24,5.78,5.78,0,0,1-.59,3.15c-.39.54-1.36.8-2.9.8a3.63,3.63,0,0,1-2.58-1,3,3,0,0,0-1.92-1V78l-.12-.12h-.94l-.51-.41a3.32,3.32,0,0,1-.73-.82l-.36-.36a5.34,5.34,0,0,1-.82-2L501,73.13l.12-.94L501,70.71a3,3,0,0,1,.12-.94l.12-1.6a5.37,5.37,0,0,1,.23-1,8.13,8.13,0,0,0,.3-1.89,2.84,2.84,0,0,1,.53-1.68,2.32,2.32,0,0,0,.53-1,1.13,1.13,0,0,1,.33-.68,2.9,2.9,0,0,0,.44-1.33,2.43,2.43,0,0,1,1.24-1.71c.39-.71.73-1.38,1-2a19.32,19.32,0,0,1,1.3-1.71H508a2.91,2.91,0,0,1-.59-.83c0-1.06.41-1.59,1.24-1.59a2,2,0,0,1,.59.12l.23-.48-.23-1q0-1,1.53-2a4,4,0,0,1,1.6-3.07l-.12-.94a8,8,0,0,0,1-1.57,16,16,0,0,1,1.65-2.45l1.83-2.77.83-.94s0,0,0,0a1.18,1.18,0,0,0,.12-.24c.06-.14.12-.35.2-.62l.36-.89.41-.47c1-.27,1.54-.63,1.54-1.06a2.88,2.88,0,0,0-.48-.77v-.23a1.93,1.93,0,0,1,.71-1.18,7.56,7.56,0,0,0,1.33-2,5.94,5.94,0,0,0,.62-1.57.21.21,0,0,0-.24-.23,2.52,2.52,0,0,0-2.53,1.35c0,.24-.77.71-2.31,1.42l-.59.89a2,2,0,0,1-1.24.65,2.47,2.47,0,0,0-1.38.68q-.86.67-3.75,3.06a40,40,0,0,0-4.25,3.93l-1.36.94c-.55.28-.83.5-.83.65,0,.4-.33.91-1,1.54l-.71.88a6.82,6.82,0,0,0-.94-.29,1.39,1.39,0,0,0-1.13.65c.32.31.47.51.47.59q0,.95-1.77,2l-2.55,2.65a10,10,0,0,1-.89.65,3.4,3.4,0,0,0-1.15,1.33,16.5,16.5,0,0,1-2.11,2.78,16.06,16.06,0,0,1-2,2.12,2.23,2.23,0,0,0-.71.8,11,11,0,0,1-1.72,1.83A4.21,4.21,0,0,0,486.2,62c-.75.28-1.12.52-1.12.71l-.36.59-.47.24a2.49,2.49,0,0,0-.18.8c0,.37-.83,1-2.36,2a8.77,8.77,0,0,1-2.9,1.45,1.17,1.17,0,0,0-.53.24,1.23,1.23,0,0,1-.47.23,7.78,7.78,0,0,1-1.56-.71q-1.39-.7-2-3.3l.47-1.54-.23-1.24a1.6,1.6,0,0,1,.56-.94,2.08,2.08,0,0,0,.56-1.48c.63-1.41,1.1-2.42,1.42-3l.11-.94a6.22,6.22,0,0,1,.8-1.33,3.44,3.44,0,0,0,.68-1.65,1.25,1.25,0,0,1,.77-1.15q.64-.24,4.78-7.15V43l1.71-3c.51-.87,1.14-1.85,1.89-3l.53-1.35a18.86,18.86,0,0,0-1.95-.71,1.52,1.52,0,0,0-.88.47c0,.67-1.16,1.36-3.49,2.07a6.49,6.49,0,0,0-1.82,1.71l-1.66.94a10.91,10.91,0,0,0-1.12,1l-.82.76A4.63,4.63,0,0,0,474,43.62l-1.59,1.12a8.37,8.37,0,0,0-.95.88,10.11,10.11,0,0,1-2.18,1.3l-.94.95-.89.47A13.51,13.51,0,0,0,466,50.05a1.81,1.81,0,0,1-1.24.83l-1.3.47a5.47,5.47,0,0,1-2.18,2.95l-1.71,2.13a9.86,9.86,0,0,1-.83.65,1.4,1.4,0,0,1-.83.82c-.51.63-.84,1.07-1,1.3l-.71.53c-1.06.4-1.59.71-1.59,1l.12,1.06c0,.43-.47.85-1.42,1.24a1.19,1.19,0,0,0-.68.94,4.23,4.23,0,0,1-.44,1.36h-1.06a4.3,4.3,0,0,0-1.12.59.35.35,0,0,0-.24.12l.24,1.36a2.5,2.5,0,0,1-.95,1.62,11.83,11.83,0,0,0-1.44,1.62c-.34.48-.58.71-.74.71h-.35l-.36.24A3.24,3.24,0,0,1,444.72,74l-.71.88a21.58,21.58,0,0,0-2,3,32.32,32.32,0,0,1-3.14,4.31,8.61,8.61,0,0,1-2.71,2.21c-.83.37-1.71.76-2.66,1.15L431.07,85a2.75,2.75,0,0,0-1-1.06c-.45-.28-.68-.57-.68-.89L428.65,81a4.53,4.53,0,0,1,.65-2,8.37,8.37,0,0,0,.8-1.89,9.42,9.42,0,0,1,.68-1.83,9.09,9.09,0,0,0,.53-1.27c0-1.06.16-1.72.5-2l2.27-1.74q.12,0,.12-.24v-.11l-.12-1c.91-1.53,1.48-2.3,1.71-2.3a2,2,0,0,1,.48.12l-.36-1.3c0-.16.22-.41.65-.77a4.13,4.13,0,0,0,1-1.18l-.24-.71v-.23a3.19,3.19,0,0,1,1.47-2.31c.16-.31.48-1.12.95-2.42l1.54-2.71a3.73,3.73,0,0,1,1.25-1.51,1.24,1.24,0,0,0,.71-.91,3.18,3.18,0,0,1,.42-1.18c0,.2,0,.2.09,0s.16-.56.29-1.15a2.19,2.19,0,0,1,1.34-1.42c.91-2.32,1.62-3.48,2.14-3.48a1.53,1.53,0,0,1,.65.23h.24c.63,0,.94-.23.94-.71a.21.21,0,0,0-.23-.23,1.45,1.45,0,0,1-.95.59c-.28,0-.41-.08-.41-.24s.06-.15.17-.23l1.31-2.66.11-1.12a8.4,8.4,0,0,1,.95-1.06l1-1.36v-.59a8,8,0,0,1,.53-1.21,9.67,9.67,0,0,0,.77-2.16l1-1.47a4.09,4.09,0,0,0,.24-1.3c0-.59-.08-.89-.24-.89l-3.42.65a38.43,38.43,0,0,0-4,2.25l-1.36.29a12,12,0,0,0-1.58.8,6.62,6.62,0,0,1-2.55.88,3.19,3.19,0,0,0-1.93.86l-.23.12h-1.12a9.94,9.94,0,0,0-.89,1.15c-.16.25-.29.38-.41.38q-6,4-7.56,4.78a15.13,15.13,0,0,0-2.42,1.51,7.81,7.81,0,0,1-1.41,1v.71a3.4,3.4,0,0,1-1.45,2.27,4.13,4.13,0,0,1-2.51,1.27,2.64,2.64,0,0,1-1.09-.38,4.82,4.82,0,0,0-1.65-.5c-.62-.08-.92-.83-.92-2.25q0-3,5-5.49a8.61,8.61,0,0,0,1.42-.82,40.49,40.49,0,0,1,5.25-2.3l1.71-.83a5.38,5.38,0,0,1,2-1.09c.92-.34,1.65-.62,2.18-.86a9.32,9.32,0,0,1,1.27-.47Zm55.4,14.29.59-1.06v-.12q0-.12-.24-.12c-.39,0-.71.39-.94,1.18.07.24.15.36.23.36A.38.38,0,0,0,491.67,48.34Z"/><path d="M525.27,66.46v-.59a7.17,7.17,0,0,1,1.18-2.54,5.71,5.71,0,0,1,2.71-2.54c.08,0,.12,0,.12-.11l-.12-1a18.07,18.07,0,0,0,1.18-1.53c.63-.87,1.24-1.24,1.83-1.12a5.38,5.38,0,0,1,1.65-1.57,7.31,7.31,0,0,0,1.83-1.62l2.18-1.36A7.41,7.41,0,0,1,541.19,51h.89A2.12,2.12,0,0,1,544,49.82a2.15,2.15,0,0,1,1.47.35.35.35,0,0,0,.24.12,4.78,4.78,0,0,0,.7-.47,2.64,2.64,0,0,1,1.6-.48,21.65,21.65,0,0,1,2.65.95,2,2,0,0,1,1.36-.71,2.13,2.13,0,0,1,.82.35,9.23,9.23,0,0,0,1.21.62c.42.18.82.91,1.21,2.19a18.06,18.06,0,0,1,.59,2.15q0,.95-1.56,2.22a4.79,4.79,0,0,1-2.91,1.27c-.32,0-.71-.28-1.18-.83a15.28,15.28,0,0,1-3-.89,8.41,8.41,0,0,0-2.53.89h-.12l-.53-.47-.47-.12h-.12a7.9,7.9,0,0,0-.47.82,6.15,6.15,0,0,1-1.62.86,2.43,2.43,0,0,0-1.09.65,4.66,4.66,0,0,1-1.38.91,3.3,3.3,0,0,0-1.45,1.3,7.38,7.38,0,0,1-1.7.77h-.36a22.29,22.29,0,0,1-2.18,3.13l-1.53,2.54c-.35.31-.78.68-1.3,1.09s-.76.78-.76,1.09a2.6,2.6,0,0,0,.12.59v.59c0,.24-.19.52-.57.86s-.56.58-.56.74l.12,1.3-.47,2.06c0,1.22.88,1.83,2.65,1.83h.89l2.54-.41c.82-.12,1.51-.24,2.06-.36s.86-.17.94-.17a4.13,4.13,0,0,0,1-.65h.59l.53-.12c.15-.83,1.28-1.52,3.36-2.07a4.13,4.13,0,0,1,2.39-1.56,8.39,8.39,0,0,0,3.39-2.16h.88a3.71,3.71,0,0,0,1.09-.67,9.1,9.1,0,0,1,1.89-1.1,3.33,3.33,0,0,0,1.21-.71,2.11,2.11,0,0,1,.88-.53A4.51,4.51,0,0,1,557,65.52l.23-.24a3.39,3.39,0,0,1,1.18-.82l.71.11c.39,0,.64-.24.74-.74s.73-1.16,1.89-2a6.09,6.09,0,0,1,2.21-1.27c.74,0,1.12.39,1.12,1.18,0,.59-.34.92-1,1a10.45,10.45,0,0,1,.65,1.72A2.45,2.45,0,0,1,562.75,67a.38.38,0,0,0-.24.36l-.12,1.06s0,0,0,.09a2,2,0,0,1-.23.26l-.89.12-.24.36a14.19,14.19,0,0,0-3,2.42l-1.18,1.24h-.17c-.4-.4-.71-.59-.95-.59s-.35.27-.59.82a10.15,10.15,0,0,1-2.89,2.31,4.4,4.4,0,0,0-1.24.94l-1.18.77h-.89a1.73,1.73,0,0,0-.32.5,3.43,3.43,0,0,1-1,1,6.56,6.56,0,0,0-1.27,1.15,2.21,2.21,0,0,1-1.09.74l-1.07-.23a2,2,0,0,1-1.94.94,8.37,8.37,0,0,0-1,.91c-.45.46-.75.68-.91.68a3.76,3.76,0,0,1-1.24-.7h-.12c-.39,0-.59.29-.59.88s-.36.91-1.09,1a4.55,4.55,0,0,0-2,.59h-.11a3,3,0,0,1-2-.51,5.64,5.64,0,0,0-1.06-.73c-1.23.39-1.87.59-1.95.59a2,2,0,0,1-1.36-.59L526.21,82a5.47,5.47,0,0,1-.82-1.6l-.36-.47c-1.26-.23-2.1-1.53-2.54-3.89L522,74.61a.8.8,0,0,1-.12-.53,5.45,5.45,0,0,1,.48-1.8,26.3,26.3,0,0,0,.94-3.25A3.22,3.22,0,0,1,525.27,66.46Z"/><path d="M553.33,119.29l-.94.66a2.43,2.43,0,0,1-1.24.35c-1,0-1.94-.65-2.86-2a6.82,6.82,0,0,1-1.39-4,13.37,13.37,0,0,1,.74-5.29,9.74,9.74,0,0,0,.85-2.33s.43-1,1.27-2.92a22.35,22.35,0,0,1,2.39-4.34A28.64,28.64,0,0,0,554,96.69l.24-.48A6.15,6.15,0,0,1,556,94.27c0-.24.76-1.06,2.27-2.45a52,52,0,0,1,4.28-3.58l.59-.82a7.13,7.13,0,0,1,1.65-.89l3.43-.94a23.66,23.66,0,0,1,2.3-1.83H571l1.6-.47a18.29,18.29,0,0,1,4-1.1c1.82-.33,2.86-.72,3.11-1.18a13.53,13.53,0,0,0,.63-1.27c.17-.39.6-1.22,1.29-2.48.16-.66.3-1.2.41-1.59a1.27,1.27,0,0,1,.39-.71,3.4,3.4,0,0,0,.68-1.15,12.42,12.42,0,0,1,.94-1.74.11.11,0,0,0,.12-.12l-.35-1a3.31,3.31,0,0,1,1-1.74c.33-.22.5-.37.5-.45l-.41-1.06,1-2.18a.21.21,0,0,0-.23-.24q-3.13,2.19-3.66,2.19a15.55,15.55,0,0,1-1.3,1.41,2.16,2.16,0,0,0-1.36,1.24l-.47.12-.35.59q0,.12-.42.3a15,15,0,0,0-1.64.94l-.71-.12c-.16,0-.36.4-.59,1.18a4.3,4.3,0,0,1-1.92,1.45,2.1,2.1,0,0,0-1.15.62l-.47.59-.59-.12c-.82,0-1.24.32-1.24,1a1.92,1.92,0,0,1-.7,1.23,2.72,2.72,0,0,0-1.18.36H567a2.71,2.71,0,0,1-2.12,1.59L563.19,81l-1,.36a10.56,10.56,0,0,0-1.41.85,4.83,4.83,0,0,1-2.42.62,10.92,10.92,0,0,0-2.54-.91c-1.14-.3-1.94-2.21-2.42-5.76h-.12a2,2,0,0,0-1,.36,1.92,1.92,0,0,1-.8.35c-.94,0-1.41-.39-1.41-1.18a3.37,3.37,0,0,1,2-3.48l1.48-1.83,3.78-3.72c2.64-2.64,4.42-4.33,5.32-5.08s1.9-1.47,3-2.18l3-2a10.91,10.91,0,0,1,1.89-1.09,2.09,2.09,0,0,0,.74-.38,9.53,9.53,0,0,1,2.16-.89l1.07-.47a18.35,18.35,0,0,1,4.26-1.12l.82.11a2,2,0,0,0,1.25-.47,5.16,5.16,0,0,0,2.54-1.3l2.13-.59a5.08,5.08,0,0,1,1.48-.29h1.12c.83,0,1.37.65,1.63,1.95s.48,1.94.68,1.94.31-.29.7-.88l.83-.59a3.41,3.41,0,0,1,1.12-.59,1.62,1.62,0,0,1,1.77,1.18V54l.24.29a29.44,29.44,0,0,1,.53,3.48,7.16,7.16,0,0,1-1.21,4.43,10.71,10.71,0,0,0-1.45,2.25,37.9,37.9,0,0,1-2.36,7.2c-.19.43-.67,1.57-1.41,3.42l-.59.59a.38.38,0,0,0-.24.36l.12.82a5.26,5.26,0,0,0-1,2.54,6.25,6.25,0,0,1-.95,2.18,7.08,7.08,0,0,0,1,.62,8.08,8.08,0,0,1,2.07,1.89,4.05,4.05,0,0,1,1.15,2.1c0,.12-.22.88-.65,2.3a6.51,6.51,0,0,1-3.6,1.59,3.53,3.53,0,0,1-1.72-.76l-.35.12v-.24a4.58,4.58,0,0,1-1.22-.44,1.63,1.63,0,0,0-.85-.27.42.42,0,0,0-.48.47,1.07,1.07,0,0,0,.12.48c-.24.19-.55.49-1,.88a9.71,9.71,0,0,1-.82,1.74,7.5,7.5,0,0,1-1.48,2.1c-.87,0-1.46.69-1.78,1.95a4.7,4.7,0,0,1-1.12,2.42l-.59-.24a19.13,19.13,0,0,1-4,5.78c-.83.2-1.25.35-1.27.45s-.06.35-.12.77a4.68,4.68,0,0,1-1.41,1.94c-.89.89-1.41,1.33-1.57,1.33l-.59.12-.35.35q0,1.19-3.13,3.78c-1.14.63-1.75,1.06-1.83,1.3-.32.75-1.48,1.63-3.49,2.66l-1.12,1a4.78,4.78,0,0,1-1.53,1ZM574.64,89l-1.77.24a2,2,0,0,0-1-.47c-.16,0-.27.11-.35.35a5.89,5.89,0,0,1-3.13,1.6A9.81,9.81,0,0,0,565.1,92a3,3,0,0,1-1.44.74c-.4,0-.59.12-.59.24a6.28,6.28,0,0,0-.89.82,4.51,4.51,0,0,0-1.18.74,2.6,2.6,0,0,1-1.24.62c-.71,1.54-1.22,2.3-1.53,2.3a4.4,4.4,0,0,1-.6-.11h-.11a5.16,5.16,0,0,1-1.18,1.77,2,2,0,0,0-.71.68,3.85,3.85,0,0,1-1.15,1,2.68,2.68,0,0,0-1.15,1.8,3.72,3.72,0,0,1-.74,1.71,3.36,3.36,0,0,0-.56,2l-.36.83a11.34,11.34,0,0,0-.5,2c-.21,1.12-.32,1.7-.32,1.74a2,2,0,0,0,.7,1.48,1.57,1.57,0,0,1,1-.41L556,110.5c.12-.08.55-.44,1.3-1.09a6.31,6.31,0,0,1,2-1.27,3.85,3.85,0,0,0,1.56-1.06A4.31,4.31,0,0,1,562,105.9a1.77,1.77,0,0,0,.8-1.19c.9-.78,1.73-1.52,2.48-2.21a6.57,6.57,0,0,0,1.45-1.71,2.82,2.82,0,0,1,1-1.15l.23-.77a2.8,2.8,0,0,1,.51-.15c.25-.06.68-.7,1.27-1.92l1.59-2.65a10.87,10.87,0,0,0,2.3-3.6l.83-.71a.55.55,0,0,0,.23-.53Zm-1.06-18.83.71-1a2.18,2.18,0,0,1,1.21-.71,2.48,2.48,0,0,0,1.39-1,8.7,8.7,0,0,1,3.36-3l.59-.42c.59-1.14,1.12-1.76,1.6-1.86a2,2,0,0,0,1.24-1.06,3.25,3.25,0,0,0,.53-1.51c0-.15-.12-.23-.36-.23a2.32,2.32,0,0,0-1.44.47,1.91,1.91,0,0,1-.86.47l-1.18-.12c-.71.4-1.69.87-3,1.42l-1.06.89a4,4,0,0,1-1.27.59,1.22,1.22,0,0,0-.86.73c-.2.42-.45.63-.77.63l-.47.23a2.28,2.28,0,0,1-1.36.24,6.08,6.08,0,0,0-1.21,1c-.41.43-.66.65-.73.65a6.85,6.85,0,0,1-2.34,1.83,2.12,2.12,0,0,0-1.27,1,3.41,3.41,0,0,0-1.88,1.33,5.84,5.84,0,0,1-1.39,1.42,4.37,4.37,0,0,0-1.09,1l-.59.47a4.52,4.52,0,0,0-1,1.57,5.43,5.43,0,0,0-.62,1.86c0,.23.14.35.42.35a6.16,6.16,0,0,0,2.21-.85,10,10,0,0,0,2.09-1.33c.32-.32.54-.47.65-.47l2.25.11a1.78,1.78,0,0,1,1.21-1,2.23,2.23,0,0,0,1.33-1,5.82,5.82,0,0,1,2.65-1.66l.65-1.06Z"/><path d="M626.1,77.38l-2.78,2.42a.72.72,0,0,0-.47-.23c-.4,0-.88.35-1.45,1.06s-1,1.06-1.21,1.06l-.59-.12a7.84,7.84,0,0,1-2.13,1.3,8.89,8.89,0,0,0-1.56.65,4.35,4.35,0,0,1-1.66.53,1.94,1.94,0,0,0-1.21.51,3.82,3.82,0,0,1-2.3.44l-1-.12a3.11,3.11,0,0,1-1,.35,1.51,1.51,0,0,1-1-.5,1.92,1.92,0,0,0-1.15-.56,2,2,0,0,1-1.27-.82,4.19,4.19,0,0,0-1.21-1.07,2.39,2.39,0,0,1-.91-.82l-.83-.71a6.92,6.92,0,0,1-1.95-2.6,7.24,7.24,0,0,1-.94-3V75l.11-1.12-.11-1.3a4.06,4.06,0,0,0,.59-1V69.65l1.41-4.72c.08-.2-.08-.45-.47-.77a2.41,2.41,0,0,1-1.18,1.06,1.19,1.19,0,0,0-.81.83c-.13.43-.36.65-.68.65l-.71-.24a6.1,6.1,0,0,0-.54,1.21,1.46,1.46,0,0,1-1.43,1.09c-.71,0-1.07-.27-1.07-.82l.12-1.06-.35-1.48a4.66,4.66,0,0,1,.94-1.86A3.53,3.53,0,0,1,597.09,62a2.31,2.31,0,0,0,1.36-1.13,8.76,8.76,0,0,1,2.45-2.21,3,3,0,0,0,1.83-1.53A6.7,6.7,0,0,1,604.89,56a4.14,4.14,0,0,0,2-1.21,16.59,16.59,0,0,1,4-2.48,12.84,12.84,0,0,1,4.88-1.68,4.74,4.74,0,0,0,1.3-.26l1.54-.48a6.25,6.25,0,0,0,1.48-.65,2.72,2.72,0,0,1,1.24-.44l1.72.59a14.25,14.25,0,0,1,2.3.77,5.38,5.38,0,0,0,1.21.5,14.81,14.81,0,0,1,2.25,1A2.53,2.53,0,0,1,630,54.12a11.07,11.07,0,0,0-1,1.6c0,.16.45.39,1.36.71.31.59.79,1.35,1.42,2.3l.65,2.06.12,4.85-.12.47c-.44.39-.65.65-.65.77l.18,1.18-.48,1.65a1.4,1.4,0,0,1-.59,1,1.14,1.14,0,0,0-.53.59l-.35.47a11.06,11.06,0,0,0-.51,1,4.49,4.49,0,0,1-.85,1.33,2,2,0,0,0-.59,1.12,1.33,1.33,0,0,1-.59.94,2.09,2.09,0,0,0-.68.62A1.62,1.62,0,0,1,626.1,77.38Zm-18.35,1.54.24,1.36.12.11h.94l.29.12a9.86,9.86,0,0,0,1.77.24,4.4,4.4,0,0,0,2.92-.92,3.08,3.08,0,0,1,1.74-.91c.43,0,.79-.3,1.08-.89s.48-.88.57-.88h.82l.23-.12a2,2,0,0,1,1.21-2,3.55,3.55,0,0,0,1.71-1.56A4.38,4.38,0,0,1,622.54,72a2.45,2.45,0,0,0,.88-1.33l.47-.71a1.22,1.22,0,0,0,.24-.88L625.25,67a10.88,10.88,0,0,0,.35-2.3,2.16,2.16,0,0,0-1.27-1.95A2.89,2.89,0,0,1,623.07,60a3.27,3.27,0,0,1,1.38-2.51c.93-.77,1.39-1.23,1.39-1.39a.32.32,0,0,0-.36-.35,8,8,0,0,0-1.35.47q-.42.83-4.18,2.19a9.53,9.53,0,0,0-1.36-.6c-.23,0-.47.24-.7.71a3.13,3.13,0,0,1-.71,1h-.77c-.08,0-.33.25-.76.76A2,2,0,0,1,614,61l-.71.71a2.47,2.47,0,0,1-1.18,1.95l-.64.77c-.4.47-.91,1-1.54,1.65l-1.06,2.65a6.75,6.75,0,0,0-.64,2.31,2.15,2.15,0,0,1-.8.73,1.15,1.15,0,0,0-.62,1c0,.08.14.27.41.59a1.33,1.33,0,0,1,.42.71l-.24.76L607.16,77Z"/><path d="M686.11,72h.23l.6.24a.33.33,0,0,0,.23-.12,2.09,2.09,0,0,1,1-1.71,2.69,2.69,0,0,1,1.33-1.71c.69-.4,1.79-1.05,3.29-2l1.47-1.3.71-.35.48-.59a1.73,1.73,0,0,1,1.24-.77c.59,0,.89.21.89.65L697,65.52l.23,2a2.71,2.71,0,0,1-.74,1.88c-.49.56-1.25,1.36-2.27,2.42l-3,3.19-1.59.83a5.47,5.47,0,0,0-1.07.83l-2.3,1.94a1.47,1.47,0,0,1-.53,1.24h-1l-.47.24a4.77,4.77,0,0,1-2.43,2.18l-.82.59a1.24,1.24,0,0,1-.77.36l-1.66-.24-1.12.24a2.77,2.77,0,0,1-1.27-.47,7.2,7.2,0,0,0-1.63-.74c-.55-.18-1.25-.91-2.09-2.19a9.64,9.64,0,0,1-1.39-2.51,2.23,2.23,0,0,0-.27-.79,2.77,2.77,0,0,1-.27-.68,7.13,7.13,0,0,1,.54-1.18v-.12a2.79,2.79,0,0,0-.33-.83,3.47,3.47,0,0,1-.32-1.59,3.62,3.62,0,0,0-.36-1.36c.32-.31.47-.55.47-.71a1.9,1.9,0,0,0-.17-.67,2.07,2.07,0,0,1-.18-.68l.35-2.9-.23-1.47.12-1.42c0-.83-.36-1.24-1.06-1.24a2,2,0,0,0-1.18.65l-.41.12a13.57,13.57,0,0,0-2.24,1.27,2.19,2.19,0,0,1-1.35.5,3.22,3.22,0,0,1-1.35.65l-.47.35a6.58,6.58,0,0,1-.94.71,13.18,13.18,0,0,1-2.21,2q-2.21,1.8-4,3.39A6.77,6.77,0,0,1,652.72,73c-.53.1-.79.61-.79,1.51,0,.16-.36.47-1.06,1a7.53,7.53,0,0,0-1.24,1.29,4.71,4.71,0,0,0-1.06-.7c-.51,0-.88.64-1.12,1.94-.24.51-.87.83-1.89,1a2.43,2.43,0,0,0-.42.88l-.23.24h-.6a3.38,3.38,0,0,0-.83.68,3.43,3.43,0,0,1-1.24.85c-.51,1.07-1,1.6-1.3,1.6a1.58,1.58,0,0,1-.68-.24,5.42,5.42,0,0,0-1.09-.41c-.44-.12-.92-.6-1.45-1.45a4.28,4.28,0,0,1-.8-2.15q0-6.56,2.54-7.15l.12-.23v-.47a1.13,1.13,0,0,1,.68-1.1,3.86,3.86,0,0,0,1.38-1.29,4.84,4.84,0,0,1,1-1.1h.77c.15,0,.23-.41.23-1.24a.91.91,0,0,1,.3-.65,1.39,1.39,0,0,0,.35-.85A5.42,5.42,0,0,1,645.1,63a5.58,5.58,0,0,0,.79-1.51l-.11-.23a5.88,5.88,0,0,1-2.13,1.47c-.43.08-1,.65-1.77,1.72l-.94-.18a21.59,21.59,0,0,1-3.08,2.06,3.32,3.32,0,0,0-1.3,1.36.47.47,0,0,1-.42.47,6.66,6.66,0,0,0-1.53,1h-.36c-1,0-1.48-.71-1.48-2.13L634,63.63a5,5,0,0,1,2.5-2.69,30.92,30.92,0,0,0,3.34-2.09,4.92,4.92,0,0,1,2.71-1.07l.41-.59a4.51,4.51,0,0,0,2.72-2.42c.47-1.1,1.12-1.65,1.94-1.65a5.74,5.74,0,0,1,5,2.39,7.43,7.43,0,0,1,1.71,3.81l.12,1.59a10.54,10.54,0,0,1-.36,2.31,3.42,3.42,0,0,0-.71,1.59c0,.31.2.47.59.47a1.74,1.74,0,0,0,.95-.5,8.8,8.8,0,0,1,1.32-.92,1.93,1.93,0,0,0,.86-.7,3.35,3.35,0,0,1,2.06-1.95,5.75,5.75,0,0,0,1.83-.89l.59-.47L662,59a7,7,0,0,0,2.13-1.3,2.45,2.45,0,0,1,1.41-.77,5,5,0,0,0,2-1.06l.88-.24.83-.47a2.07,2.07,0,0,1,.71-.3c.39-.12,1-.32,1.74-.62a4.87,4.87,0,0,1,6.31,2,7.45,7.45,0,0,1,1.74,3.9l-.12,1.06.23,1.59V63l-.47,3.25.12,1.12c0,1.85-.39,3.13-1.18,3.83-.2.08-.3.28-.3.59v.54l1.19,2.48c.35.86.63,1.29.82,1.29l1.9-.53a2.29,2.29,0,0,0,1.36-1.24A8.76,8.76,0,0,0,685,72.9C685.22,72.27,685.6,72,686.11,72Z"/><path d="M736.93,68.29l.94-.82a1,1,0,0,0,1.06-.8,1.92,1.92,0,0,1,1.27-1.27,4.92,4.92,0,0,0,2-1.92c.63-1,1.27-1.45,1.94-1.45.24,0,.51.2.82.6a1.66,1.66,0,0,1,.47.94,8.09,8.09,0,0,1-1.17,4l-.24,1.66-.41.76a2.55,2.55,0,0,0-1.15,1,4.3,4.3,0,0,1-1.39,1.3l-.59.82a2.67,2.67,0,0,0-1.74,1.36,1.66,1.66,0,0,1-1.24,1.06,3.24,3.24,0,0,0-1.74,1.18,7.7,7.7,0,0,1-1.42.53l-.12.59a4.14,4.14,0,0,1-1.86,1,10.23,10.23,0,0,0-1.88.68,2.29,2.29,0,0,1-.86.32,4.75,4.75,0,0,1-2.07-.44,6.34,6.34,0,0,0-1.94-.56,1.35,1.35,0,0,1-.42-.77,2.56,2.56,0,0,0-.59-1.09,3,3,0,0,1-.53-1.86l.24-1.12a1,1,0,0,0-.3-.59,1.06,1.06,0,0,1-.29-.59.49.49,0,0,1,.12-.36.45.45,0,0,0,.12-.35,2,2,0,0,0-.12-.65,1.92,1.92,0,0,1-.12-.59l.35-2.89c0-.24-.08-.36-.23-.36s-.45.2-.86.59a2,2,0,0,1-1.44.59,2.63,2.63,0,0,0-.77,1.48,5.28,5.28,0,0,1-1.18,1.06l-.24.36c-.08.27-.37.5-.89.68a2.11,2.11,0,0,0-1.06.67l-.59.59-1.12-.11a7.88,7.88,0,0,0-.65,1A4.81,4.81,0,0,1,713.71,76l-4.49,3.66c-.47.31-1.16.7-2.06,1.18l-.36.35c-3.14,2.09-5.37,3.13-6.67,3.13a10,10,0,0,1-3.72-.89c-1.41-.59-2.18-1.3-2.3-2.12l-.59-2.42a4.28,4.28,0,0,1-.53-2.3,2.43,2.43,0,0,1,.12-1v-.35L693,73.37c0-.47.37-.71,1.12-.71L694,71.07a8.33,8.33,0,0,1,1-1.86,8.6,8.6,0,0,1,1.38-1.86l.59-.77a2,2,0,0,1,.83-1.51,8.33,8.33,0,0,0,1.42-1.62,7.1,7.1,0,0,1,2-1.83L703,59.85a18,18,0,0,1,4.49-3.31A5.65,5.65,0,0,0,709,55.36a7,7,0,0,1,2.48-1.56,16.34,16.34,0,0,0,2.72-1.27,4.71,4.71,0,0,1,2.1-.77h.47a24.39,24.39,0,0,0,3.14-1.47h.35a3.73,3.73,0,0,1,1.12.47h.12l.95-.47a1.29,1.29,0,0,1,.59-.12q3.66,0,4,5.08c.08.7.27,1.06.59,1.06s1-.72,1.68-2.16S731.58,52,733.94,52c1.69,0,2.54,1.08,2.54,3.25a10.2,10.2,0,0,1-3.43,7.26,4.55,4.55,0,0,0-.35,1.06L731.87,66v.12a1.77,1.77,0,0,1-.5,1,1.89,1.89,0,0,0-.5,1.09l.12,1.48-.24,1.65a2,2,0,0,0,.41,1.48,4.85,4.85,0,0,0,2.74-1.57A4.1,4.1,0,0,1,735.11,70l.59-.23A5.81,5.81,0,0,1,736.93,68.29Zm-19.6,0a2.78,2.78,0,0,1,1.45-2,2.86,2.86,0,0,0,1.44-1.38,31.55,31.55,0,0,0,3.22-3c1.4-1.42,2.1-2.29,2.1-2.6q0-.18-.24-.18h-.12l-.47.3-1.06-.12-1.12.12-.83-.42-.77.12L719.75,59a3.18,3.18,0,0,0-1.62.38,11.5,11.5,0,0,1-2.6.85,9.47,9.47,0,0,0-3.45,1.63A4.72,4.72,0,0,1,709.83,63a8.84,8.84,0,0,1-2.77,2.54,2.7,2.7,0,0,0-1.83,2.06c-1,.83-1.54,1.3-1.54,1.42l-.41,1a3.66,3.66,0,0,1-1.18.68,1.37,1.37,0,0,0-.83,1.24,3.25,3.25,0,0,1-.8,1.77,2.32,2.32,0,0,0-.68,1.27c0,1.93.38,2.89,1.13,2.89a7,7,0,0,0,2-.61,8,8,0,0,0,1.75-.86,2.35,2.35,0,0,1,.94-.47l1.12-.59a1.06,1.06,0,0,1,.53-.3,1.13,1.13,0,0,0,.59-.38,3.9,3.9,0,0,1,1.07-.71,3,3,0,0,0,1.18-1c.67-.4,1.75-1,3.25-1.83l1.23-.95a4.44,4.44,0,0,0,1.6-1A3.05,3.05,0,0,1,717.33,68.29Z"/><path d="M736.23,119.29l-.94.66a2.45,2.45,0,0,1-1.24.35c-1,0-1.94-.65-2.87-2a6.89,6.89,0,0,1-1.39-4,13.56,13.56,0,0,1,.74-5.29,9.44,9.44,0,0,0,.86-2.33s.42-1,1.27-2.92a21.83,21.83,0,0,1,2.39-4.34,28.64,28.64,0,0,0,1.89-2.77l.23-.48a6.16,6.16,0,0,1,1.72-1.94c0-.24.75-1.06,2.27-2.45a50.42,50.42,0,0,1,4.28-3.58l.59-.82a6.73,6.73,0,0,1,1.65-.89l3.43-.94a23.66,23.66,0,0,1,2.3-1.83h.47l1.59-.47a18.41,18.41,0,0,1,4-1.1c1.82-.33,2.86-.72,3.11-1.18a13.53,13.53,0,0,0,.63-1.27c.17-.39.6-1.22,1.29-2.48.16-.66.29-1.2.41-1.59a1.27,1.27,0,0,1,.39-.71,3.46,3.46,0,0,0,.67-1.15,12.38,12.38,0,0,1,1-1.74.11.11,0,0,0,.12-.12l-.36-1a3.37,3.37,0,0,1,1-1.74c.33-.22.5-.37.5-.45l-.41-1.06,1-2.18a.21.21,0,0,0-.24-.24q-3.12,2.19-3.66,2.19a15,15,0,0,1-1.29,1.41,2.16,2.16,0,0,0-1.36,1.24l-.47.12-.35.59q0,.12-.42.3a15.85,15.85,0,0,0-1.65.94l-.7-.12c-.16,0-.36.4-.59,1.18a4.3,4.3,0,0,1-1.92,1.45,2.1,2.1,0,0,0-1.15.62l-.47.59-.59-.12c-.83,0-1.24.32-1.24,1a1.9,1.9,0,0,1-.71,1.23,2.72,2.72,0,0,0-1.17.36h-.89a2.71,2.71,0,0,1-2.12,1.59L746.09,81l-1,.36a10.65,10.65,0,0,0-1.42.85,4.76,4.76,0,0,1-2.41.62,10.92,10.92,0,0,0-2.54-.91c-1.14-.3-2-2.21-2.42-5.76h-.12a1.94,1.94,0,0,0-1,.36,1.92,1.92,0,0,1-.8.35c-.94,0-1.41-.39-1.41-1.18,0-1.77.66-2.93,2-3.48l1.48-1.83,3.78-3.72q4-4,5.32-5.08c.91-.74,1.89-1.47,3-2.18l3-2a10.17,10.17,0,0,1,1.89-1.09,2.18,2.18,0,0,0,.74-.38,9.53,9.53,0,0,1,2.16-.89l1.06-.47a18.35,18.35,0,0,1,4.26-1.12l.83.11a1.91,1.91,0,0,0,1.24-.47,5.14,5.14,0,0,0,2.55-1.3l2.13-.59a5,5,0,0,1,1.48-.29H771q1.24,0,1.62,1.95c.26,1.29.49,1.94.68,1.94s.32-.29.71-.88l.83-.59a3.32,3.32,0,0,1,1.12-.59,1.63,1.63,0,0,1,1.77,1.18V54l.24.29a29.44,29.44,0,0,1,.53,3.48,7.22,7.22,0,0,1-1.21,4.43,10.71,10.71,0,0,0-1.45,2.25,38.63,38.63,0,0,1-2.36,7.2c-.2.43-.67,1.57-1.42,3.42l-.59.59a.39.39,0,0,0-.23.36l.12.82a5.29,5.29,0,0,0-1,2.54,6.15,6.15,0,0,1-.94,2.18,6.49,6.49,0,0,0,1,.62,8.08,8.08,0,0,1,2.07,1.89,4.13,4.13,0,0,1,1.15,2.1c0,.12-.22.88-.65,2.3a6.51,6.51,0,0,1-3.6,1.59,3.53,3.53,0,0,1-1.72-.76l-.36.12v-.24a4.62,4.62,0,0,1-1.21-.44,1.63,1.63,0,0,0-.86-.27.42.42,0,0,0-.47.47,1.07,1.07,0,0,0,.12.48c-.24.19-.55.49-1,.88a10.25,10.25,0,0,1-.83,1.74,7.11,7.11,0,0,1-1.48,2.1q-1.29.06-1.77,1.95a4.79,4.79,0,0,1-1.12,2.42l-.59-.24a19.31,19.31,0,0,1-4,5.78c-.83.2-1.25.35-1.27.45s-.06.35-.12.77a4.64,4.64,0,0,1-1.42,1.94c-.88.89-1.41,1.33-1.56,1.33l-.59.12-.36.35q.06,1.19-3.13,3.78c-1.14.63-1.75,1.06-1.83,1.3-.31.75-1.47,1.63-3.48,2.66l-1.12,1a4.78,4.78,0,0,1-1.53,1ZM757.53,89l-1.77.24a1.91,1.91,0,0,0-1-.47c-.16,0-.28.11-.35.35a5.93,5.93,0,0,1-3.13,1.6A9.81,9.81,0,0,0,748,92a3,3,0,0,1-1.45.74c-.39,0-.59.12-.59.24a6.12,6.12,0,0,0-.88.82,4.35,4.35,0,0,0-1.18.74,2.64,2.64,0,0,1-1.24.62c-.71,1.54-1.22,2.3-1.54,2.3a4.37,4.37,0,0,1-.59-.11h-.12a4.88,4.88,0,0,1-1.18,1.77,2,2,0,0,0-.7.68,3.79,3.79,0,0,1-1.16,1,2.71,2.71,0,0,0-1.15,1.8,3.62,3.62,0,0,1-.73,1.71,3.35,3.35,0,0,0-.57,2l-.35.83a11.34,11.34,0,0,0-.5,2q-.33,1.68-.33,1.74a2,2,0,0,0,.71,1.48,1.57,1.57,0,0,1,1-.41l3.48-1.42c.12-.08.55-.44,1.3-1.09a6.18,6.18,0,0,1,2-1.27,3.81,3.81,0,0,0,1.57-1.06,4.17,4.17,0,0,1,1.15-1.18,1.8,1.8,0,0,0,.8-1.19c.9-.78,1.73-1.52,2.48-2.21a6.49,6.49,0,0,0,1.44-1.71,2.85,2.85,0,0,1,1-1.15l.23-.77a2.89,2.89,0,0,1,.5-.15c.26-.06.68-.7,1.27-1.92l1.6-2.65a10.87,10.87,0,0,0,2.3-3.6l.83-.71a.55.55,0,0,0,.23-.53Zm-1-18.83.71-1a2.15,2.15,0,0,1,1.21-.71,2.48,2.48,0,0,0,1.39-1,8.7,8.7,0,0,1,3.36-3l.59-.42q.88-1.71,1.59-1.86a2,2,0,0,0,1.24-1.06,3.14,3.14,0,0,0,.53-1.51c0-.15-.11-.23-.35-.23a2.37,2.37,0,0,0-1.45.47,1.85,1.85,0,0,1-.85.47l-1.18-.12c-.71.4-1.69.87-2.95,1.42l-1.07.89a3.83,3.83,0,0,1-1.27.59,1.22,1.22,0,0,0-.85.73c-.2.42-.45.63-.77.63l-.47.23a2.28,2.28,0,0,1-1.36.24,5.81,5.81,0,0,0-1.21,1c-.41.43-.66.65-.74.65a6.74,6.74,0,0,1-2.33,1.83,2.09,2.09,0,0,0-1.27,1,3.4,3.4,0,0,0-1.89,1.33,5.66,5.66,0,0,1-1.38,1.42,4.41,4.41,0,0,0-1.1,1l-.59.47a4.56,4.56,0,0,0-1,1.57,5.43,5.43,0,0,0-.62,1.86c0,.23.14.35.41.35a6.18,6.18,0,0,0,2.22-.85,10,10,0,0,0,2.09-1.33c.32-.32.53-.47.65-.47l2.24.11a1.8,1.8,0,0,1,1.21-1,2.17,2.17,0,0,0,1.33-1,5.87,5.87,0,0,1,2.66-1.66l.65-1.06Z"/><path d="M823,68.29l.94-.82a1,1,0,0,0,1.06-.8,1.93,1.93,0,0,1,1.26-1.27,4.88,4.88,0,0,0,2-1.92c.62-1,1.27-1.45,1.94-1.45.23,0,.51.2.82.6a1.73,1.73,0,0,1,.47.94,8,8,0,0,1-1.18,4l-.23,1.66-.42.76a2.61,2.61,0,0,0-1.15,1,4.35,4.35,0,0,1-1.38,1.3l-.59.82a2.72,2.72,0,0,0-1.75,1.36,1.63,1.63,0,0,1-1.23,1.06,3.17,3.17,0,0,0-1.74,1.18,7.7,7.7,0,0,1-1.42.53l-.12.59a4.14,4.14,0,0,1-1.86,1,10.68,10.68,0,0,0-1.89.68,2.26,2.26,0,0,1-.85.32,4.75,4.75,0,0,1-2.07-.44,6.48,6.48,0,0,0-1.95-.56,1.39,1.39,0,0,1-.41-.77,2.56,2.56,0,0,0-.59-1.09,3,3,0,0,1-.53-1.86l.24-1.12a1,1,0,0,0-.3-.59,1,1,0,0,1-.29-.59.53.53,0,0,1,.11-.36.45.45,0,0,0,.12-.35,2,2,0,0,0-.12-.65,2.2,2.2,0,0,1-.11-.59l.35-2.89q0-.36-.24-.36c-.15,0-.44.2-.85.59a2,2,0,0,1-1.45.59,2.76,2.76,0,0,0-.77,1.48,4.87,4.87,0,0,1-1.18,1.06l-.23.36c-.08.27-.38.5-.89.68a2.11,2.11,0,0,0-1.06.67l-.59.59-1.12-.11a7.88,7.88,0,0,0-.65,1A4.94,4.94,0,0,1,799.79,76l-4.49,3.66c-.47.31-1.16.7-2.06,1.18l-.36.35q-4.73,3.14-6.67,3.13a10,10,0,0,1-3.72-.89c-1.42-.59-2.18-1.3-2.3-2.12l-.59-2.42a4.19,4.19,0,0,1-.53-2.3,2.72,2.72,0,0,1,.11-1v-.35l-.11-1.95c0-.47.37-.71,1.12-.71l-.12-1.59a8,8,0,0,1,1-1.86,8.49,8.49,0,0,1,1.39-1.86l.59-.77a2,2,0,0,1,.83-1.51,8.33,8.33,0,0,0,1.42-1.62,7.1,7.1,0,0,1,2-1.83l1.77-1.77a18,18,0,0,1,4.49-3.31,5.65,5.65,0,0,0,1.45-1.18,7,7,0,0,1,2.48-1.56,16.72,16.72,0,0,0,2.72-1.27,4.71,4.71,0,0,1,2.1-.77h.47A24,24,0,0,0,806,50.29h.36a3.83,3.83,0,0,1,1.12.47h.12l1-.47a1.26,1.26,0,0,1,.59-.12q3.66,0,4,5.08c.07.7.27,1.06.59,1.06s.95-.72,1.68-2.16S817.65,52,820,52c1.69,0,2.53,1.08,2.53,3.25a10.22,10.22,0,0,1-3.42,7.26,4.12,4.12,0,0,0-.35,1.06L818,66v.12a1.84,1.84,0,0,1-.5,1,1.83,1.83,0,0,0-.5,1.09l.12,1.48-.24,1.65a2,2,0,0,0,.41,1.48A4.85,4.85,0,0,0,820,71.21a4.24,4.24,0,0,1,1.2-1.21l.59-.23A6.06,6.06,0,0,1,823,68.29Zm-19.6,0a2.77,2.77,0,0,1,1.44-2,2.89,2.89,0,0,0,1.45-1.38,31.55,31.55,0,0,0,3.22-3c1.4-1.42,2.09-2.29,2.09-2.6,0-.12-.08-.18-.23-.18h-.12l-.47.3-1.07-.12-1.12.12-.82-.42-.77.12L805.83,59a3.25,3.25,0,0,0-1.63.38,11.19,11.19,0,0,1-2.59.85,9.59,9.59,0,0,0-3.46,1.63A4.66,4.66,0,0,1,795.91,63a8.92,8.92,0,0,1-2.78,2.54,2.74,2.74,0,0,0-1.83,2.06c-1,.83-1.53,1.3-1.53,1.42l-.41,1a3.61,3.61,0,0,1-1.19.68,1.36,1.36,0,0,0-.82,1.24,3.32,3.32,0,0,1-.8,1.77,2.32,2.32,0,0,0-.68,1.27c0,1.93.38,2.89,1.12,2.89a6.93,6.93,0,0,0,2-.61,7.53,7.53,0,0,0,1.74-.86,2.49,2.49,0,0,1,.95-.47l1.12-.59a1,1,0,0,1,.53-.3,1.16,1.16,0,0,0,.59-.38,3.82,3.82,0,0,1,1.06-.71,2.85,2.85,0,0,0,1.18-1c.67-.4,1.76-1,3.25-1.83l1.24-.95a4.44,4.44,0,0,0,1.6-1A3,3,0,0,1,803.41,68.29Z"/><path d="M830.86,69.53v-.41a5.56,5.56,0,0,1,.12-1.3,4.86,4.86,0,0,1-.36-1.71,16.37,16.37,0,0,1,.59-1.65l.53-1.83a9.94,9.94,0,0,1,.48-1.13,7,7,0,0,1-.36-1.06,3.31,3.31,0,0,1,.77-2.24,7.45,7.45,0,0,0,1.3-2.48l1.18-3.6,1.94-4.72a7,7,0,0,1,.56-.95c.34-.51.61-1,.83-1.33s.52-.91.91-1.62l.59-.12a.67.67,0,0,0,.24-.47,7.26,7.26,0,0,0-.24-.95L842,38.54,843.25,36a2.94,2.94,0,0,1,1.3-1.3,6.59,6.59,0,0,1,2.07-2.65,8.33,8.33,0,0,1,1.29-2.42l1.13-.12a4.8,4.8,0,0,1,.59-1.24l.11-1.18c0,.23.1.17.3-.21a21.14,21.14,0,0,0,.88-2.09l1.6-1.83.47-.83c.2-.28.51-.81.94-1.59a3.07,3.07,0,0,0,1.48-1.3l1.24-1c-.08-.43.39-1.39,1.42-2.89a7.54,7.54,0,0,0,1.83-1.06l.82-.24a2.89,2.89,0,0,1,1.48-2.83l.71-.47a5.84,5.84,0,0,1,1.06-.48l.41-.11A5.23,5.23,0,0,1,866,9.91a5.72,5.72,0,0,1,4,1.62,4.92,4.92,0,0,1,1.77,3.69,2.54,2.54,0,0,1-.88,1.72l-.24.47c-.55,2.16-.94,3.24-1.18,3.24a1.18,1.18,0,0,0-.65.36,10.83,10.83,0,0,1-.24,2.18c-.7.12-1.06,1-1.06,2.66a4.88,4.88,0,0,1-.85,1.21,6,6,0,0,0-1.16,2.36c-.27,1-.57,1.51-.88,1.51H864l.18.88a2.32,2.32,0,0,1-.8,1.62,3.31,3.31,0,0,0-1,1.69A4.65,4.65,0,0,1,861,37.24l-.59.95a8.4,8.4,0,0,1-1,1.24,5.38,5.38,0,0,0-1,2l-1.53,2.84c-1.07,1.92-1.87,2.85-2.42,2.77a21.32,21.32,0,0,1-.71,2.66,1.72,1.72,0,0,1-.83.65,2,2,0,0,0-1,1,3.25,3.25,0,0,1-.77,1.09l-1.06,2.19a2.48,2.48,0,0,0-1.36,1.53c-.63.16-1,.69-1.18,1.59a4,4,0,0,0-.59,1.07l-2.07,2.06a3.56,3.56,0,0,0-1.71,2.57,1.39,1.39,0,0,1-1.53,1.45,8,8,0,0,1-2.95-.89h-.12a5.78,5.78,0,0,1-.83,1.83l.24,1.6c0,.19-.32,1.43-1,3.71a3.23,3.23,0,0,1,.47,1.24l-.11,1.3.29,1.6c.2,1.3.67,1.94,1.42,1.94l1.41.24a9.61,9.61,0,0,0,1.48-.88l2.18-1.18c.08,0,.12,0,.12.11a2.68,2.68,0,0,0,.94.24c.4,0,.59-.32.59-1v-.76a1.38,1.38,0,0,1,.86-.71,1.94,1.94,0,0,0,.91-.53c.28-.28.49-.42.65-.42h.59c.59,0,.89-.68.89-2.06a3,3,0,0,0,.59-.47h.7c.32,0,.66-.39,1-1.16a7.19,7.19,0,0,1,.79-1.38,4.18,4.18,0,0,0,1.48-.36q1.89-3.42,2.89-3.42h.35a3,3,0,0,0,1.09-1.68,1.15,1.15,0,0,1,.59-1,3.7,3.7,0,0,0,.92-.59,1.39,1.39,0,0,1,.53-.35c.59,0,.88.22.88.65l-.17,1.65.41,1.77a2.3,2.3,0,0,1-.5.92,2.42,2.42,0,0,0-.5,1.5c0,1.14-.2,1.75-.59,1.83a1.49,1.49,0,0,0-1,.8A3.64,3.64,0,0,1,858,70.33,3.46,3.46,0,0,0,856.64,72l-1,.24-.59.35a4.26,4.26,0,0,1-1.51,2.25,6.49,6.49,0,0,0-2,2.47q-.18,0-.18.12l-.95-.12a2.2,2.2,0,0,1-1.06,1.13,1.66,1.66,0,0,0-.88.68,2.71,2.71,0,0,1-1.27.85,2,2,0,0,0-1.15.83.9.9,0,0,1-.71.53,1.6,1.6,0,0,0-.88.44,1.18,1.18,0,0,1-.71.39c-.08,0-.36,0-.83-.12h-.23a3.17,3.17,0,0,1-1.65.71,2.07,2.07,0,0,0-1.13.23,2.78,2.78,0,0,0-1.09-.35,6.18,6.18,0,0,1-1.68-.59,7.44,7.44,0,0,1-1.24.23c-.67,0-1.51-.66-2.53-2a6.33,6.33,0,0,1-1.54-3.87,8.42,8.42,0,0,0-.68-.92,3,3,0,0,1-.68-1.86V73l.12-.7V71.18l.12-.35c.59-.08.89-.16.89-.24Zm12-15.64,1.24-.71a5.5,5.5,0,0,1,1.53-2.27c.87-.89,1.48-1.33,1.83-1.33h.47a2.07,2.07,0,0,1,.18-.83,2.84,2.84,0,0,0,.18-1.12q0-.35,1.59-2l.47-1.06A4.71,4.71,0,0,1,853,42.08c.55-1.14,1-1.71,1.24-1.71l.47-.12a3.46,3.46,0,0,1,.95-1.59l.23-.36v-.94a4.47,4.47,0,0,1,.8-1,6.84,6.84,0,0,0,1.15-1.6,2.89,2.89,0,0,1,1-1.15,2.25,2.25,0,0,0,.86-1.47l1-.12a2.77,2.77,0,0,1,.11-1l.12-.59q.3-.7,2.07-3.72l.94-2.18a1.4,1.4,0,0,1,.5-.86,1.92,1.92,0,0,0,.51-1.44l.47-1.95c0-.9-.16-1.36-.47-1.36a4.6,4.6,0,0,1-1.1.59c-.33.12-.66.83-1,2.13q-1.77.4-2,1.68a3.54,3.54,0,0,1-1.44,2.15l-.42.71a2.39,2.39,0,0,1-1.12,1.36A6.61,6.61,0,0,0,855.88,30c-2,2.72-3,4.17-3.24,4.37l-.59.71-.89-.12A9.62,9.62,0,0,1,851.4,36a.93.93,0,0,1-.36.68,2.12,2.12,0,0,0-.53.8,3.82,3.82,0,0,1-.71,1.09,5.85,5.85,0,0,0-1,2,3.58,3.58,0,0,1-.8,1.62l-.82-.12c-.52.32-.77.63-.77,1l.18.82a.86.86,0,0,1-.33.56,3.28,3.28,0,0,0-.62,1.27,14.8,14.8,0,0,1-1.48,2.87,18.74,18.74,0,0,0-1.86,4.07A6.75,6.75,0,0,1,841,55.36a.45.45,0,0,0,.35.12C841.87,55.48,842.36,55,842.84,53.89Z"/><path d="M858.08,69.53v-.41a5.56,5.56,0,0,1,.12-1.3,4.86,4.86,0,0,1-.36-1.71,16.37,16.37,0,0,1,.59-1.65l.53-1.83a11.34,11.34,0,0,1,.47-1.13,7.61,7.61,0,0,1-.35-1.06,3.31,3.31,0,0,1,.77-2.24,7.45,7.45,0,0,0,1.3-2.48l1.18-3.6,1.94-4.72a7,7,0,0,1,.56-.95c.34-.51.61-1,.83-1.33s.52-.91.91-1.62l.59-.12a.67.67,0,0,0,.24-.47,7.26,7.26,0,0,0-.24-.95l2.07-3.42L870.47,36a2.89,2.89,0,0,1,1.3-1.3,6.59,6.59,0,0,1,2.06-2.65,8.63,8.63,0,0,1,1.3-2.42l1.12-.12a5.56,5.56,0,0,1,.59-1.24l.12-1.18c0,.23.1.17.3-.21s.49-1.07.88-2.09l1.6-1.83.47-.83c.2-.28.51-.81.94-1.59a3.12,3.12,0,0,0,1.48-1.3l1.24-1c-.08-.43.39-1.39,1.42-2.89a7.94,7.94,0,0,0,1.83-1.06l.82-.24a2.89,2.89,0,0,1,1.48-2.83l.71-.47a5.52,5.52,0,0,1,1.06-.48l.41-.11a5.17,5.17,0,0,1,1.65-.24,5.72,5.72,0,0,1,4,1.62A4.92,4.92,0,0,1,899,15.22a2.54,2.54,0,0,1-.88,1.72l-.24.47c-.55,2.16-.94,3.24-1.18,3.24A1.15,1.15,0,0,0,896,21a10.83,10.83,0,0,1-.24,2.18c-.71.12-1.06,1-1.06,2.66a4.88,4.88,0,0,1-.85,1.21,6,6,0,0,0-1.16,2.36c-.27,1-.57,1.51-.88,1.51h-.65l.18.88a2.32,2.32,0,0,1-.8,1.62,3.41,3.41,0,0,0-1,1.69,4.61,4.61,0,0,1-1.41,2.12l-.59.95a8.4,8.4,0,0,1-1,1.24,5.38,5.38,0,0,0-1,2l-1.53,2.84c-1.07,1.92-1.87,2.85-2.43,2.77a22.26,22.26,0,0,1-.7,2.66,1.72,1.72,0,0,1-.83.65,2,2,0,0,0-1,1,3.39,3.39,0,0,1-.77,1.09l-1.06,2.19A2.48,2.48,0,0,0,876,56.19c-.63.16-1,.69-1.18,1.59a3.74,3.74,0,0,0-.59,1.07l-2.07,2.06a3.56,3.56,0,0,0-1.71,2.57,1.39,1.39,0,0,1-1.53,1.45,8.09,8.09,0,0,1-3-.89h-.11a5.78,5.78,0,0,1-.83,1.83l.23,1.6c0,.19-.31,1.43-.94,3.71a3.42,3.42,0,0,1,.47,1.24l-.11,1.3.29,1.6c.2,1.3.67,1.94,1.42,1.94l1.41.24a9.61,9.61,0,0,0,1.48-.88l2.18-1.18c.08,0,.12,0,.12.11a2.68,2.68,0,0,0,.94.24c.39,0,.59-.32.59-1v-.76a1.38,1.38,0,0,1,.86-.71,1.94,1.94,0,0,0,.91-.53c.28-.28.49-.42.65-.42h.59c.59,0,.89-.68.89-2.06a2.75,2.75,0,0,0,.58-.47h.71c.32,0,.66-.39,1-1.16a6.67,6.67,0,0,1,.79-1.38,4.18,4.18,0,0,0,1.48-.36c1.25-2.28,2.22-3.42,2.89-3.42h.35a3.07,3.07,0,0,0,1.09-1.68,1.15,1.15,0,0,1,.59-1,3.7,3.7,0,0,0,.92-.59,1.39,1.39,0,0,1,.53-.35c.59,0,.88.22.88.65l-.17,1.65.41,1.77a2.3,2.3,0,0,1-.5.92,2.42,2.42,0,0,0-.5,1.5c0,1.14-.2,1.75-.59,1.83a1.49,1.49,0,0,0-1,.8,3.6,3.6,0,0,1-1.27,1.24A3.5,3.5,0,0,0,883.86,72l-1,.24-.59.35a4.2,4.2,0,0,1-1.5,2.25,6.58,6.58,0,0,0-2,2.47c-.11,0-.17,0-.17.12l-1-.12a2.2,2.2,0,0,1-1.06,1.13,1.66,1.66,0,0,0-.88.68,2.71,2.71,0,0,1-1.27.85,2,2,0,0,0-1.15.83.91.91,0,0,1-.71.53,1.57,1.57,0,0,0-.88.44,1.18,1.18,0,0,1-.71.39c-.08,0-.36,0-.83-.12h-.23a3.16,3.16,0,0,1-1.66.71,2.06,2.06,0,0,0-1.12.23,2.78,2.78,0,0,0-1.09-.35,6.18,6.18,0,0,1-1.68-.59,7.44,7.44,0,0,1-1.24.23c-.67,0-1.51-.66-2.54-2a6.37,6.37,0,0,1-1.53-3.87,8.42,8.42,0,0,0-.68-.92,3,3,0,0,1-.68-1.86V73l.12-.7V71.18l.12-.35c.59-.08.88-.16.88-.24Zm12-15.64,1.23-.71a5.54,5.54,0,0,1,1.54-2.27c.87-.89,1.48-1.33,1.83-1.33h.47a2.07,2.07,0,0,1,.18-.83,2.84,2.84,0,0,0,.18-1.12q0-.35,1.59-2l.47-1.06a4.71,4.71,0,0,1,2.66-2.54c.55-1.14,1-1.71,1.24-1.71l.47-.12a3.46,3.46,0,0,1,1-1.59l.23-.36v-.94a4.47,4.47,0,0,1,.8-1,6.84,6.84,0,0,0,1.15-1.6,2.89,2.89,0,0,1,1-1.15,2.25,2.25,0,0,0,.86-1.47l.94-.12a2.7,2.7,0,0,1,.12-1l.12-.59q.3-.7,2.07-3.72l.94-2.18a1.4,1.4,0,0,1,.5-.86,1.91,1.91,0,0,0,.5-1.44l.48-1.95c0-.9-.16-1.36-.48-1.36a4.38,4.38,0,0,1-1.09.59c-.33.12-.66.83-1,2.13q-1.77.4-2,1.68a3.59,3.59,0,0,1-1.44,2.15l-.42.71A2.39,2.39,0,0,1,885,27.56,6.61,6.61,0,0,0,883.1,30c-2,2.72-3.05,4.17-3.25,4.37l-.59.71-.88-.12a9.62,9.62,0,0,1,.24,1.06.93.93,0,0,1-.36.68,2,2,0,0,0-.53.8,3.82,3.82,0,0,1-.71,1.09,5.85,5.85,0,0,0-1,2,3.58,3.58,0,0,1-.8,1.62l-.83-.12c-.51.32-.76.63-.76,1l.17.82a.89.89,0,0,1-.32.56,3.28,3.28,0,0,0-.62,1.27,14.8,14.8,0,0,1-1.48,2.87,18.74,18.74,0,0,0-1.86,4.07,6.75,6.75,0,0,1-1.32,2.74.45.45,0,0,0,.35.12C869.09,55.48,869.58,55,870.06,53.89Z"/></svg>